<mxfile host="app.diagrams.net" modified="2023-03-28T12:38:45.108Z" agent="Mozilla/5.0 (Windows NT 10.0; Win64; x64) AppleWebKit/537.36 (KHTML, like Gecko) Chrome/111.0.0.0 Safari/537.36" etag="WR-ypWSDy2fZck9o-892" version="21.1.1" type="device">
  <diagram name="PÃ¡gina-1" id="xSZPqQeE0lkv7ycBKaMw">
    <mxGraphModel dx="2338" dy="1736" grid="0" gridSize="10" guides="1" tooltips="1" connect="1" arrows="1" fold="1" page="0" pageScale="1" pageWidth="827" pageHeight="1169" math="0" shadow="0">
      <root>
        <mxCell id="0" />
        <mxCell id="1" parent="0" />
        <mxCell id="WwwLS8CgqeU5e52Q2BZr-70" value="" style="rounded=0;whiteSpace=wrap;html=1;" vertex="1" parent="1">
          <mxGeometry x="-285" y="-417" width="3690" height="1748" as="geometry" />
        </mxCell>
        <mxCell id="WwwLS8CgqeU5e52Q2BZr-68" value="" style="rounded=1;whiteSpace=wrap;html=1;strokeWidth=1;" vertex="1" parent="1">
          <mxGeometry x="-218" y="-198" width="3509" height="1337" as="geometry" />
        </mxCell>
        <mxCell id="WwwLS8CgqeU5e52Q2BZr-55" value="" style="rounded=1;whiteSpace=wrap;html=1;fillColor=#f5f5f5;fontColor=#333333;strokeColor=#666666;strokeWidth=1;" vertex="1" parent="1">
          <mxGeometry x="563" y="669" width="2253" height="378" as="geometry" />
        </mxCell>
        <mxCell id="WwwLS8CgqeU5e52Q2BZr-38" value="" style="rounded=1;whiteSpace=wrap;html=1;fillColor=#eeeeee;strokeColor=#36393d;strokeWidth=1;" vertex="1" parent="1">
          <mxGeometry x="594" y="-50" width="2226" height="378" as="geometry" />
        </mxCell>
        <mxCell id="WwwLS8CgqeU5e52Q2BZr-1" value="" style="endArrow=classic;startArrow=classic;html=1;rounded=0;edgeStyle=orthogonalEdgeStyle;curved=1;strokeWidth=1;" edge="1" parent="1">
          <mxGeometry width="50" height="50" relative="1" as="geometry">
            <mxPoint x="146" y="429" as="sourcePoint" />
            <mxPoint x="140" y="129" as="targetPoint" />
            <Array as="points">
              <mxPoint x="146" y="429" />
              <mxPoint x="4" y="429" />
              <mxPoint x="4" y="129" />
              <mxPoint x="142" y="129" />
            </Array>
          </mxGeometry>
        </mxCell>
        <mxCell id="WwwLS8CgqeU5e52Q2BZr-2" value="" style="endArrow=classic;startArrow=classic;html=1;rounded=0;edgeStyle=orthogonalEdgeStyle;curved=1;strokeWidth=1;" edge="1" parent="1">
          <mxGeometry width="50" height="50" relative="1" as="geometry">
            <mxPoint x="140" y="848" as="sourcePoint" />
            <mxPoint x="134" y="548" as="targetPoint" />
            <Array as="points">
              <mxPoint x="140" y="848" />
              <mxPoint x="-2" y="848" />
              <mxPoint x="-2" y="548" />
              <mxPoint x="136" y="548" />
            </Array>
          </mxGeometry>
        </mxCell>
        <mxCell id="WwwLS8CgqeU5e52Q2BZr-3" value="&lt;span style=&quot;font-size: 21px;&quot;&gt;&lt;b&gt;COMMANDS&lt;/b&gt;&lt;/span&gt;" style="text;html=1;strokeColor=none;fillColor=none;align=center;verticalAlign=middle;whiteSpace=wrap;rounded=0;strokeWidth=1;" vertex="1" parent="1">
          <mxGeometry x="-116" y="257" width="60" height="30" as="geometry" />
        </mxCell>
        <mxCell id="WwwLS8CgqeU5e52Q2BZr-4" value="&lt;span style=&quot;font-size: 21px;&quot;&gt;&lt;b&gt;QUERIES&lt;/b&gt;&lt;/span&gt;" style="text;html=1;strokeColor=none;fillColor=none;align=center;verticalAlign=middle;whiteSpace=wrap;rounded=0;strokeWidth=1;" vertex="1" parent="1">
          <mxGeometry x="-116" y="687" width="60" height="30" as="geometry" />
        </mxCell>
        <mxCell id="WwwLS8CgqeU5e52Q2BZr-5" value="&lt;span style=&quot;font-size: 28px;&quot;&gt;- NewOrderCommand&lt;/span&gt;" style="text;html=1;strokeColor=none;fillColor=none;align=center;verticalAlign=middle;whiteSpace=wrap;rounded=0;strokeWidth=1;fontSize=28;" vertex="1" parent="1">
          <mxGeometry x="58" y="168" width="234" height="30" as="geometry" />
        </mxCell>
        <mxCell id="WwwLS8CgqeU5e52Q2BZr-6" value="&lt;span style=&quot;font-size: 28px;&quot;&gt;- EditOrderCommand&lt;/span&gt;" style="text;html=1;strokeColor=none;fillColor=none;align=center;verticalAlign=middle;whiteSpace=wrap;rounded=0;strokeWidth=1;fontSize=28;" vertex="1" parent="1">
          <mxGeometry x="53" y="206" width="234" height="30" as="geometry" />
        </mxCell>
        <mxCell id="WwwLS8CgqeU5e52Q2BZr-7" value="&lt;span style=&quot;font-size: 28px;&quot;&gt;- AddItemOrderCommand&lt;/span&gt;" style="text;html=1;strokeColor=none;fillColor=none;align=center;verticalAlign=middle;whiteSpace=wrap;rounded=0;strokeWidth=1;fontSize=28;" vertex="1" parent="1">
          <mxGeometry x="80" y="242" width="234" height="30" as="geometry" />
        </mxCell>
        <mxCell id="WwwLS8CgqeU5e52Q2BZr-8" value="&lt;span style=&quot;font-size: 28px;&quot;&gt;- EditItemOrderCommand&lt;/span&gt;" style="text;html=1;strokeColor=none;fillColor=none;align=center;verticalAlign=middle;whiteSpace=wrap;rounded=0;strokeWidth=1;fontSize=28;" vertex="1" parent="1">
          <mxGeometry x="81" y="278" width="234" height="30" as="geometry" />
        </mxCell>
        <mxCell id="WwwLS8CgqeU5e52Q2BZr-10" value="&lt;span style=&quot;font-size: 28px;&quot;&gt;- RemoveItemOrderCommand&lt;/span&gt;" style="text;html=1;strokeColor=none;fillColor=none;align=center;verticalAlign=middle;whiteSpace=wrap;rounded=0;strokeWidth=1;fontSize=28;" vertex="1" parent="1">
          <mxGeometry x="109" y="314" width="234" height="30" as="geometry" />
        </mxCell>
        <mxCell id="WwwLS8CgqeU5e52Q2BZr-11" value="&lt;span style=&quot;font-size: 28px;&quot;&gt;- DeleteOrderCommand&lt;/span&gt;" style="text;html=1;strokeColor=none;fillColor=none;align=center;verticalAlign=middle;whiteSpace=wrap;rounded=0;strokeWidth=1;fontSize=28;" vertex="1" parent="1">
          <mxGeometry x="72" y="348" width="234" height="30" as="geometry" />
        </mxCell>
        <mxCell id="WwwLS8CgqeU5e52Q2BZr-12" value="&lt;span style=&quot;font-size: 28px;&quot;&gt;- FindAllOrderQuery&lt;/span&gt;" style="text;html=1;strokeColor=none;fillColor=none;align=center;verticalAlign=middle;whiteSpace=wrap;rounded=0;strokeWidth=1;fontSize=28;" vertex="1" parent="1">
          <mxGeometry x="43" y="657" width="234" height="30" as="geometry" />
        </mxCell>
        <mxCell id="WwwLS8CgqeU5e52Q2BZr-13" value="&lt;span style=&quot;font-size: 28px;&quot;&gt;- FindOrderByIdQuery&lt;/span&gt;" style="text;html=1;strokeColor=none;fillColor=none;align=center;verticalAlign=middle;whiteSpace=wrap;rounded=0;strokeWidth=1;fontSize=28;" vertex="1" parent="1">
          <mxGeometry x="58" y="698" width="234" height="30" as="geometry" />
        </mxCell>
        <mxCell id="WwwLS8CgqeU5e52Q2BZr-14" value="&lt;span style=&quot;font-size: 28px;&quot;&gt;- FindOrderWithItemsQuery&lt;/span&gt;" style="text;html=1;strokeColor=none;fillColor=none;align=center;verticalAlign=middle;whiteSpace=wrap;rounded=0;strokeWidth=1;fontSize=28;" vertex="1" parent="1">
          <mxGeometry x="93" y="734" width="234" height="30" as="geometry" />
        </mxCell>
        <mxCell id="WwwLS8CgqeU5e52Q2BZr-15" value="" style="outlineConnect=0;dashed=0;verticalLabelPosition=bottom;verticalAlign=top;align=center;html=1;shape=mxgraph.aws3.android;fillColor=#115193;gradientColor=none;strokeWidth=1;" vertex="1" parent="1">
          <mxGeometry x="548" y="196" width="133" height="148" as="geometry" />
        </mxCell>
        <mxCell id="WwwLS8CgqeU5e52Q2BZr-16" value="" style="outlineConnect=0;dashed=0;verticalLabelPosition=bottom;verticalAlign=top;align=center;html=1;shape=mxgraph.aws3.android;fillColor=#115193;gradientColor=none;strokeWidth=1;" vertex="1" parent="1">
          <mxGeometry x="535" y="617" width="133" height="148" as="geometry" />
        </mxCell>
        <mxCell id="WwwLS8CgqeU5e52Q2BZr-17" value="&lt;font style=&quot;font-size: 16px;&quot;&gt;HTTP&lt;/font&gt;" style="endArrow=classic;html=1;rounded=0;strokeWidth=1;" edge="1" parent="1" target="WwwLS8CgqeU5e52Q2BZr-15">
          <mxGeometry width="50" height="50" relative="1" as="geometry">
            <mxPoint x="333" y="269" as="sourcePoint" />
            <mxPoint x="599" y="447" as="targetPoint" />
          </mxGeometry>
        </mxCell>
        <mxCell id="WwwLS8CgqeU5e52Q2BZr-18" value="&lt;font style=&quot;font-size: 16px;&quot;&gt;HTTP&lt;/font&gt;" style="endArrow=classic;html=1;rounded=0;strokeWidth=1;" edge="1" parent="1">
          <mxGeometry width="50" height="50" relative="1" as="geometry">
            <mxPoint x="320" y="702" as="sourcePoint" />
            <mxPoint x="535" y="703" as="targetPoint" />
          </mxGeometry>
        </mxCell>
        <mxCell id="WwwLS8CgqeU5e52Q2BZr-19" value="&lt;font style=&quot;font-size: 28px;&quot;&gt;&amp;lt;interface&amp;gt;&lt;br style=&quot;font-size: 28px;&quot;&gt;ICommandDispatcher&lt;/font&gt;" style="rounded=1;whiteSpace=wrap;html=1;fillColor=#ffe6cc;strokeColor=#d79b00;strokeWidth=1;fontSize=28;" vertex="1" parent="1">
          <mxGeometry x="895" y="-18" width="385" height="79" as="geometry" />
        </mxCell>
        <mxCell id="WwwLS8CgqeU5e52Q2BZr-21" value="&lt;font style=&quot;font-size: 28px;&quot;&gt;&amp;lt;interface&amp;gt;&lt;br style=&quot;font-size: 28px;&quot;&gt;ICommandHandler&lt;/font&gt;" style="rounded=1;whiteSpace=wrap;html=1;fillColor=#e1d5e7;strokeColor=#9673a6;strokeWidth=1;fontSize=28;" vertex="1" parent="1">
          <mxGeometry x="1366" y="-12" width="385" height="79" as="geometry" />
        </mxCell>
        <mxCell id="WwwLS8CgqeU5e52Q2BZr-22" value="&lt;font style=&quot;font-size: 28px;&quot;&gt;&amp;lt;interface&amp;gt;&lt;br style=&quot;font-size: 28px;&quot;&gt;IEventSourcingHandler&lt;/font&gt;" style="rounded=1;whiteSpace=wrap;html=1;fillColor=#e1d5e7;strokeColor=#9673a6;strokeWidth=1;fontSize=28;" vertex="1" parent="1">
          <mxGeometry x="1884" y="-12" width="385" height="79" as="geometry" />
        </mxCell>
        <mxCell id="WwwLS8CgqeU5e52Q2BZr-23" value="&lt;span style=&quot;font-size: 28px;&quot;&gt;AggregateRoot&lt;/span&gt;" style="rounded=1;whiteSpace=wrap;html=1;fillColor=#f8cecc;strokeColor=#b85450;strokeWidth=1;fontSize=28;" vertex="1" parent="1">
          <mxGeometry x="895" y="209" width="359" height="79" as="geometry" />
        </mxCell>
        <mxCell id="WwwLS8CgqeU5e52Q2BZr-24" value="&lt;span style=&quot;font-size: 28px;&quot;&gt;OrderAggregate&lt;/span&gt;" style="rounded=1;whiteSpace=wrap;html=1;fillColor=#fff2cc;strokeColor=#d6b656;strokeWidth=1;fontSize=28;" vertex="1" parent="1">
          <mxGeometry x="1362" y="209" width="385" height="79" as="geometry" />
        </mxCell>
        <mxCell id="WwwLS8CgqeU5e52Q2BZr-25" value="&lt;font style=&quot;font-size: 28px;&quot;&gt;&amp;lt;interface&amp;gt;&lt;br style=&quot;font-size: 28px;&quot;&gt;IEventStore&lt;/font&gt;" style="rounded=1;whiteSpace=wrap;html=1;fillColor=#fff2cc;strokeColor=#d6b656;strokeWidth=1;fontSize=28;" vertex="1" parent="1">
          <mxGeometry x="2357" y="-12" width="385" height="79" as="geometry" />
        </mxCell>
        <mxCell id="WwwLS8CgqeU5e52Q2BZr-41" style="edgeStyle=orthogonalEdgeStyle;rounded=0;orthogonalLoop=1;jettySize=auto;html=1;strokeWidth=1;" edge="1" parent="1" source="WwwLS8CgqeU5e52Q2BZr-26" target="WwwLS8CgqeU5e52Q2BZr-40">
          <mxGeometry relative="1" as="geometry" />
        </mxCell>
        <mxCell id="WwwLS8CgqeU5e52Q2BZr-26" value="&lt;font style=&quot;font-size: 28px;&quot;&gt;&amp;lt;interface&amp;gt;&lt;br style=&quot;font-size: 28px;&quot;&gt;IEventPublisher&lt;/font&gt;" style="rounded=1;whiteSpace=wrap;html=1;fillColor=#b1ddf0;strokeColor=#10739e;strokeWidth=1;fontSize=28;" vertex="1" parent="1">
          <mxGeometry x="1882" y="208" width="385" height="79" as="geometry" />
        </mxCell>
        <mxCell id="WwwLS8CgqeU5e52Q2BZr-58" style="edgeStyle=orthogonalEdgeStyle;rounded=0;orthogonalLoop=1;jettySize=auto;html=1;startArrow=classic;startFill=1;strokeWidth=1;" edge="1" parent="1" source="WwwLS8CgqeU5e52Q2BZr-27" target="WwwLS8CgqeU5e52Q2BZr-57">
          <mxGeometry relative="1" as="geometry" />
        </mxCell>
        <mxCell id="WwwLS8CgqeU5e52Q2BZr-27" value="&lt;font style=&quot;font-size: 28px;&quot;&gt;&amp;lt;interface&amp;gt;&lt;br style=&quot;font-size: 28px;&quot;&gt;IEventStoreRepository&lt;/font&gt;" style="rounded=1;whiteSpace=wrap;html=1;fillColor=#d5e8d4;strokeColor=#82b366;strokeWidth=1;fontSize=28;" vertex="1" parent="1">
          <mxGeometry x="2359" y="206" width="385" height="79" as="geometry" />
        </mxCell>
        <mxCell id="WwwLS8CgqeU5e52Q2BZr-28" value="" style="endArrow=classic;startArrow=classic;html=1;rounded=0;edgeStyle=orthogonalEdgeStyle;entryX=0;entryY=0.5;entryDx=0;entryDy=0;strokeWidth=1;" edge="1" parent="1" target="WwwLS8CgqeU5e52Q2BZr-19">
          <mxGeometry width="50" height="50" relative="1" as="geometry">
            <mxPoint x="690" y="246.00000000000023" as="sourcePoint" />
            <mxPoint x="887" y="198" as="targetPoint" />
          </mxGeometry>
        </mxCell>
        <mxCell id="WwwLS8CgqeU5e52Q2BZr-29" value="" style="endArrow=classic;startArrow=classic;html=1;rounded=0;entryX=0.001;entryY=0.433;entryDx=0;entryDy=0;entryPerimeter=0;exitX=1;exitY=0.5;exitDx=0;exitDy=0;strokeWidth=1;" edge="1" parent="1" source="WwwLS8CgqeU5e52Q2BZr-19" target="WwwLS8CgqeU5e52Q2BZr-21">
          <mxGeometry width="50" height="50" relative="1" as="geometry">
            <mxPoint x="1068" y="226" as="sourcePoint" />
            <mxPoint x="1118" y="176" as="targetPoint" />
          </mxGeometry>
        </mxCell>
        <mxCell id="WwwLS8CgqeU5e52Q2BZr-30" value="" style="endArrow=classic;html=1;rounded=0;exitX=0.5;exitY=1;exitDx=0;exitDy=0;dashed=1;strokeWidth=1;" edge="1" parent="1" source="WwwLS8CgqeU5e52Q2BZr-21" target="WwwLS8CgqeU5e52Q2BZr-24">
          <mxGeometry width="50" height="50" relative="1" as="geometry">
            <mxPoint x="1186" y="247" as="sourcePoint" />
            <mxPoint x="1236" y="197" as="targetPoint" />
          </mxGeometry>
        </mxCell>
        <mxCell id="WwwLS8CgqeU5e52Q2BZr-31" value="" style="endArrow=classic;html=1;rounded=0;exitX=0;exitY=0.5;exitDx=0;exitDy=0;dashed=1;entryX=1;entryY=0.5;entryDx=0;entryDy=0;strokeWidth=1;" edge="1" parent="1" source="WwwLS8CgqeU5e52Q2BZr-24" target="WwwLS8CgqeU5e52Q2BZr-23">
          <mxGeometry width="50" height="50" relative="1" as="geometry">
            <mxPoint x="1632" y="77" as="sourcePoint" />
            <mxPoint x="1632" y="219" as="targetPoint" />
          </mxGeometry>
        </mxCell>
        <mxCell id="WwwLS8CgqeU5e52Q2BZr-32" value="" style="endArrow=classic;html=1;rounded=0;exitX=0.25;exitY=1;exitDx=0;exitDy=0;dashed=1;entryX=0.75;entryY=0;entryDx=0;entryDy=0;edgeStyle=orthogonalEdgeStyle;strokeWidth=1;" edge="1" parent="1" source="WwwLS8CgqeU5e52Q2BZr-22" target="WwwLS8CgqeU5e52Q2BZr-24">
          <mxGeometry width="50" height="50" relative="1" as="geometry">
            <mxPoint x="1632" y="77" as="sourcePoint" />
            <mxPoint x="1632" y="219" as="targetPoint" />
          </mxGeometry>
        </mxCell>
        <mxCell id="WwwLS8CgqeU5e52Q2BZr-33" value="" style="endArrow=classic;startArrow=classic;html=1;rounded=0;entryX=0;entryY=0.5;entryDx=0;entryDy=0;exitX=1;exitY=0.5;exitDx=0;exitDy=0;strokeWidth=1;" edge="1" parent="1" source="WwwLS8CgqeU5e52Q2BZr-21" target="WwwLS8CgqeU5e52Q2BZr-22">
          <mxGeometry width="50" height="50" relative="1" as="geometry">
            <mxPoint x="1834" y="27.02000000000001" as="sourcePoint" />
            <mxPoint x="1983" y="27.02000000000001" as="targetPoint" />
          </mxGeometry>
        </mxCell>
        <mxCell id="WwwLS8CgqeU5e52Q2BZr-34" value="" style="endArrow=classic;startArrow=classic;html=1;rounded=0;entryX=0;entryY=0.5;entryDx=0;entryDy=0;exitX=1;exitY=0.5;exitDx=0;exitDy=0;strokeWidth=1;" edge="1" parent="1" source="WwwLS8CgqeU5e52Q2BZr-22" target="WwwLS8CgqeU5e52Q2BZr-25">
          <mxGeometry width="50" height="50" relative="1" as="geometry">
            <mxPoint x="2418" y="31" as="sourcePoint" />
            <mxPoint x="2632" y="31" as="targetPoint" />
          </mxGeometry>
        </mxCell>
        <mxCell id="WwwLS8CgqeU5e52Q2BZr-36" value="" style="endArrow=classic;startArrow=classic;html=1;rounded=0;entryX=0.25;entryY=1;entryDx=0;entryDy=0;exitX=0.5;exitY=0;exitDx=0;exitDy=0;edgeStyle=orthogonalEdgeStyle;strokeWidth=1;" edge="1" parent="1" source="WwwLS8CgqeU5e52Q2BZr-26" target="WwwLS8CgqeU5e52Q2BZr-25">
          <mxGeometry width="50" height="50" relative="1" as="geometry">
            <mxPoint x="2423" y="38" as="sourcePoint" />
            <mxPoint x="2627" y="38" as="targetPoint" />
          </mxGeometry>
        </mxCell>
        <mxCell id="WwwLS8CgqeU5e52Q2BZr-37" value="" style="endArrow=classic;startArrow=classic;html=1;rounded=0;entryX=0.5;entryY=0;entryDx=0;entryDy=0;strokeWidth=1;" edge="1" parent="1" source="WwwLS8CgqeU5e52Q2BZr-25" target="WwwLS8CgqeU5e52Q2BZr-27">
          <mxGeometry width="50" height="50" relative="1" as="geometry">
            <mxPoint x="2423" y="38" as="sourcePoint" />
            <mxPoint x="2627" y="38" as="targetPoint" />
          </mxGeometry>
        </mxCell>
        <mxCell id="WwwLS8CgqeU5e52Q2BZr-39" value="&lt;b style=&quot;font-size: 23px;&quot;&gt;Store Order&lt;br style=&quot;font-size: 23px;&quot;&gt;Command API&lt;/b&gt;" style="text;html=1;strokeColor=none;fillColor=none;align=center;verticalAlign=middle;whiteSpace=wrap;rounded=0;strokeWidth=1;fontSize=23;" vertex="1" parent="1">
          <mxGeometry x="502" y="135.5" width="177" height="30" as="geometry" />
        </mxCell>
        <mxCell id="WwwLS8CgqeU5e52Q2BZr-46" style="edgeStyle=orthogonalEdgeStyle;rounded=0;orthogonalLoop=1;jettySize=auto;html=1;entryX=0;entryY=0.5;entryDx=0;entryDy=0;strokeWidth=1;" edge="1" parent="1" source="WwwLS8CgqeU5e52Q2BZr-40" target="WwwLS8CgqeU5e52Q2BZr-45">
          <mxGeometry relative="1" as="geometry" />
        </mxCell>
        <mxCell id="WwwLS8CgqeU5e52Q2BZr-40" value="" style="shape=image;verticalLabelPosition=bottom;labelBackgroundColor=default;verticalAlign=top;aspect=fixed;imageAspect=0;image=data:image/png,iVBORw0KGgoAAAANSUhEUgAAAr4AAAFxCAYAAACV0auJAAAACXBIWXMAAAsTAAALEwEAmpwYAAAKT2lDQ1BQaG90b3Nob3AgSUNDIHByb2ZpbGUAAHjanVNnVFPpFj333vRCS4iAlEtvUhUIIFJCi4AUkSYqIQkQSoghodkVUcERRUUEG8igiAOOjoCMFVEsDIoK2AfkIaKOg6OIisr74Xuja9a89+bN/rXXPues852zzwfACAyWSDNRNYAMqUIeEeCDx8TG4eQuQIEKJHAAEAizZCFz/SMBAPh+PDwrIsAHvgABeNMLCADATZvAMByH/w/qQplcAYCEAcB0kThLCIAUAEB6jkKmAEBGAYCdmCZTAKAEAGDLY2LjAFAtAGAnf+bTAICd+Jl7AQBblCEVAaCRACATZYhEAGg7AKzPVopFAFgwABRmS8Q5ANgtADBJV2ZIALC3AMDOEAuyAAgMADBRiIUpAAR7AGDIIyN4AISZABRG8lc88SuuEOcqAAB4mbI8uSQ5RYFbCC1xB1dXLh4ozkkXKxQ2YQJhmkAuwnmZGTKBNA/g88wAAKCRFRHgg/P9eM4Ors7ONo62Dl8t6r8G/yJiYuP+5c+rcEAAAOF0ftH+LC+zGoA7BoBt/qIl7gRoXgugdfeLZrIPQLUAoOnaV/Nw+H48PEWhkLnZ2eXk5NhKxEJbYcpXff5nwl/AV/1s+X48/Pf14L7iJIEyXYFHBPjgwsz0TKUcz5IJhGLc5o9H/LcL//wd0yLESWK5WCoU41EScY5EmozzMqUiiUKSKcUl0v9k4t8s+wM+3zUAsGo+AXuRLahdYwP2SycQWHTA4vcAAPK7b8HUKAgDgGiD4c93/+8//UegJQCAZkmScQAAXkQkLlTKsz/HCAAARKCBKrBBG/TBGCzABhzBBdzBC/xgNoRCJMTCQhBCCmSAHHJgKayCQiiGzbAdKmAv1EAdNMBRaIaTcA4uwlW4Dj1wD/phCJ7BKLyBCQRByAgTYSHaiAFiilgjjggXmYX4IcFIBBKLJCDJiBRRIkuRNUgxUopUIFVIHfI9cgI5h1xGupE7yAAygvyGvEcxlIGyUT3UDLVDuag3GoRGogvQZHQxmo8WoJvQcrQaPYw2oefQq2gP2o8+Q8cwwOgYBzPEbDAuxsNCsTgsCZNjy7EirAyrxhqwVqwDu4n1Y8+xdwQSgUXACTYEd0IgYR5BSFhMWE7YSKggHCQ0EdoJNwkDhFHCJyKTqEu0JroR+cQYYjIxh1hILCPWEo8TLxB7iEPENyQSiUMyJ7mQAkmxpFTSEtJG0m5SI+ksqZs0SBojk8naZGuyBzmULCAryIXkneTD5DPkG+Qh8lsKnWJAcaT4U+IoUspqShnlEOU05QZlmDJBVaOaUt2ooVQRNY9aQq2htlKvUYeoEzR1mjnNgxZJS6WtopXTGmgXaPdpr+h0uhHdlR5Ol9BX0svpR+iX6AP0dwwNhhWDx4hnKBmbGAcYZxl3GK+YTKYZ04sZx1QwNzHrmOeZD5lvVVgqtip8FZHKCpVKlSaVGyovVKmqpqreqgtV81XLVI+pXlN9rkZVM1PjqQnUlqtVqp1Q61MbU2epO6iHqmeob1Q/pH5Z/YkGWcNMw09DpFGgsV/jvMYgC2MZs3gsIWsNq4Z1gTXEJrHN2Xx2KruY/R27iz2qqaE5QzNKM1ezUvOUZj8H45hx+Jx0TgnnKKeX836K3hTvKeIpG6Y0TLkxZVxrqpaXllirSKtRq0frvTau7aedpr1Fu1n7gQ5Bx0onXCdHZ4/OBZ3nU9lT3acKpxZNPTr1ri6qa6UbobtEd79up+6Ynr5egJ5Mb6feeb3n+hx9L/1U/W36p/VHDFgGswwkBtsMzhg8xTVxbzwdL8fb8VFDXcNAQ6VhlWGX4YSRudE8o9VGjUYPjGnGXOMk423GbcajJgYmISZLTepN7ppSTbmmKaY7TDtMx83MzaLN1pk1mz0x1zLnm+eb15vft2BaeFostqi2uGVJsuRaplnutrxuhVo5WaVYVVpds0atna0l1rutu6cRp7lOk06rntZnw7Dxtsm2qbcZsOXYBtuutm22fWFnYhdnt8Wuw+6TvZN9un2N/T0HDYfZDqsdWh1+c7RyFDpWOt6azpzuP33F9JbpL2dYzxDP2DPjthPLKcRpnVOb00dnF2e5c4PziIuJS4LLLpc+Lpsbxt3IveRKdPVxXeF60vWdm7Obwu2o26/uNu5p7ofcn8w0nymeWTNz0MPIQ+BR5dE/C5+VMGvfrH5PQ0+BZ7XnIy9jL5FXrdewt6V3qvdh7xc+9j5yn+M+4zw33jLeWV/MN8C3yLfLT8Nvnl+F30N/I/9k/3r/0QCngCUBZwOJgUGBWwL7+Hp8Ib+OPzrbZfay2e1BjKC5QRVBj4KtguXBrSFoyOyQrSH355jOkc5pDoVQfujW0Adh5mGLw34MJ4WHhVeGP45wiFga0TGXNXfR3ENz30T6RJZE3ptnMU85ry1KNSo+qi5qPNo3ujS6P8YuZlnM1VidWElsSxw5LiquNm5svt/87fOH4p3iC+N7F5gvyF1weaHOwvSFpxapLhIsOpZATIhOOJTwQRAqqBaMJfITdyWOCnnCHcJnIi/RNtGI2ENcKh5O8kgqTXqS7JG8NXkkxTOlLOW5hCepkLxMDUzdmzqeFpp2IG0yPTq9MYOSkZBxQqohTZO2Z+pn5mZ2y6xlhbL+xW6Lty8elQfJa7OQrAVZLQq2QqboVFoo1yoHsmdlV2a/zYnKOZarnivN7cyzytuQN5zvn//tEsIS4ZK2pYZLVy0dWOa9rGo5sjxxedsK4xUFK4ZWBqw8uIq2Km3VT6vtV5eufr0mek1rgV7ByoLBtQFr6wtVCuWFfevc1+1dT1gvWd+1YfqGnRs+FYmKrhTbF5cVf9go3HjlG4dvyr+Z3JS0qavEuWTPZtJm6ebeLZ5bDpaql+aXDm4N2dq0Dd9WtO319kXbL5fNKNu7g7ZDuaO/PLi8ZafJzs07P1SkVPRU+lQ27tLdtWHX+G7R7ht7vPY07NXbW7z3/T7JvttVAVVN1WbVZftJ+7P3P66Jqun4lvttXa1ObXHtxwPSA/0HIw6217nU1R3SPVRSj9Yr60cOxx++/p3vdy0NNg1VjZzG4iNwRHnk6fcJ3/ceDTradox7rOEH0x92HWcdL2pCmvKaRptTmvtbYlu6T8w+0dbq3nr8R9sfD5w0PFl5SvNUyWna6YLTk2fyz4ydlZ19fi753GDborZ752PO32oPb++6EHTh0kX/i+c7vDvOXPK4dPKy2+UTV7hXmq86X23qdOo8/pPTT8e7nLuarrlca7nuer21e2b36RueN87d9L158Rb/1tWeOT3dvfN6b/fF9/XfFt1+cif9zsu72Xcn7q28T7xf9EDtQdlD3YfVP1v+3Njv3H9qwHeg89HcR/cGhYPP/pH1jw9DBY+Zj8uGDYbrnjg+OTniP3L96fynQ89kzyaeF/6i/suuFxYvfvjV69fO0ZjRoZfyl5O/bXyl/erA6xmv28bCxh6+yXgzMV70VvvtwXfcdx3vo98PT+R8IH8o/2j5sfVT0Kf7kxmTk/8EA5jz/GMzLdsAAAAgY0hSTQAAeiUAAICDAAD5/wAAgOkAAHUwAADqYAAAOpgAABdvkl/FRgAAKpZJREFUeNrs3e1128a6huHHXvkfpILAFRiuQFAFpiswVUGoCkRVILkC0hWIrkB0BYIrMFOBsSvQ+YHhESPrg5Twzud9rcWVvc/ZgQAQwDzzcjDz5vb2VgAAAEDu3nIKAAAAQPAFAAAACL4AAAAAwRcAAAAg+AIAAAAEXwAAAIDgCwAAABB8AQAAAIIvAAAACL4AAAAAwRcAAAAg+AIAAAAEXwAAAIDgCwAAABB8AQAAAIIvAAAAQPAFAAAACL4AAAAg+AIAAAAEXwAAAIDgCwAAABB8AQAAAIIvAAAAQPAFAAAACL4AAAAAwRcAAAAg+AIAAIDgCwAAABB8AQAAAIIvAAAAQPAFAAAACL4AAAAAwRcAAAAg+AIAAAAEXwAAAIDgCwAAAIIvAAAAQPAFAAAACL4AAAAAwRcAAAAg+AIAAAAEXwAAAIDgCwAAAOzvj9R2+M2bN6me60ZStfPfN+4DAC9ye3vLSQCAnINv5GpJrfvnkftnvce/17kQ/MP957WkntMJAAAwnjepVQwirPhOXMid7Bly99VJ+iZpKSrDAB5AxRcACL4+1JKmkj6PHHafCsFfJK1EJRgAwRcACL6eAu+ZC70h9C4AXxKAARB8AYDgm2PgfSwAz7mEAYIvAIDgO5aZC71VhKdjI+lEw8twAAi+AIAnMI/v42pJ15IuIg29qewjAABAFKj4PmwiaZFYmOw0VH87LmugDFR8AeAwVHx/N5d0pfQqqI2G6u+ErxAAAOB3VHz/a6F4XmB7jRMN8/8CyBgVXwA4DBXf/EJvbscCAABA8CUoEn4BAAAIvgREwi8AAMCO0sf4zjRMBZazXtKxmO0ByA5jfAGA4LuvVsMsCCXYSPogljkGCL4AULBShzpUGoYBlKIu7HgBAAAIvs7ChcGSTMR4XwAAULAShzq0KmeIw329pHdiyAOQBYY6AMBhSqz4lvyTf6X8X+YDAAAg+GqYxaEu/Dufcg4AAECJShvq8EtD1dOHXtJK0ncNU4l1D/xvWkmNpCMNY3B9WWpY1hhAwhjqAAAE38dM5WeYw0bSuQuXh6g0VKT/8RTO37l9BUDwBQCCb2bB96dsf+LvXeC9fOV2KklnLgRbWoqqL0DwBQCCb3bBt5XtTA6dC5HdiNucaKhQV4ZBnRkeAIIvABSjlJfbPhuHXoslgVduu1bBtJLfccUAAAAEXw+sAl4n26WAO+Pw+5FbAAAAlKKEoQ4TSVcGu7IxDr27Gkk3VqeU2wBIE0MdAOAwJVR8j4y2eyJ/42M7DS/OWWi5DQAAAME3DxbBbilp7fk45rKZfozgCwAACL6ZaAy2eRroWCyqvkfcBgAAgOCbvtZgm0uFmwJsqfGrvg23AQAAIPimrzbY5pfAx7QaeXuV/C3jDAAAQPBNJPj2Gn++3kN9Ndhmw60AAAAIvmn7c+TtdREcU8dlCwAAQPC9rxl5e98jOa515OcJAACA4IsoVZwCAABA8MWudST7seGrAAAAIPiWoOIUAAAAEHwttQRfAAAAgi/SDb49pxQAABB80zb2LAyxLO/bjLy9jlsBAAAQfLGrZR8AAAAIvjHqDLY5CXxMHw22ueZWAAAABN+0bQy2+TnwMU1H3l7PbQAAAAi+6esMtjmRVAcMvVUC5wgAAIDgG8DaYJuLAMdRSbow2O53bgMAAEDwzYNFsGvlf6zvmWzm711zGwAAgBK8ub29TWuH37w59F9pJN0Y7Eov6Vh+hgpMZVNl7iX9xW0ApCm15zcAhFZCxbeTzUtulQujlfH+N7IbWrHiFgAAAATfvFgFvEbStexedmvd9q184xYAAAClKGGowzag3hjuVi/pk8YdLzuTzctsWxtJ77gFgHQx1AEADvNHIcfZuVDaGm2/0lCZvZR0rtfNjdu4wNsan5OvCX+flTtPraQ/dbeEc7Xzn3vdjb/uJf1wYX8jXugDAKBIpVR8JbsXxO7rJS0lfdFhY4tbDYtjTD2dyr+U1uIVEw2r1rUaZ2jJWsNQj7WYyxiJouILAATfp/yU38UnOhesvruQuXGfRkN1spZ0NGKY29dS0kkCX/e2MzCR7UuEG9dRWcnmRUiA4AsABF/vwXci6arw77yX9CHygDfVMG9xHeBvL10I7ng8gOALAHl5W9jxrsT4zkOHYPgOvD81DEmpA+7Djesg1QIAANkoreIr2c/wELONhmpvH9l+NS7sNhGes0u9/oVFwAQVXwA4zNsCj7lzQaZEJ5EFuErDDBY3kYZeaZhW7kb2s2wAAABjJVZ8t2IOWxYuJZ1GtD+N4q3ypnIOUTgqvgBA8N1X7cJvVcD33GkY4hCLqYZKb4rnfq1hsZKexwcIvgCQlrcFH/tGaUzp9Vq9pOOI9memodKbaoej1bBYScPjAwAAgm9KVpmH323o7SPZn4Vsl2H2pSH8AgBA8E3RUsPYzRx9Ujzz0S7kb1U6HyrCLwAABN8UnboAnJMTxTNn8Syz0Hs//FbcQgAAEHxTC4o5vLHfa3iRLZYgP1UewxsIvwAAEHyzcqn45ro9xEbDmN4ukv1pMg+9pR0nAABJK3k6s+eCTGpL1q4iC+2VyhsDe6L8hswgYkxnBgCHoeL7sE7DcIHLBPa11zBEI7a5Zc9U3otfF4l1lgAAKAoV3+e1GmYkiDHQrDVUGTeR7VerodpborXimjcZGaPiCwCHoeK7X5B5J+lc8VRUNy5cHUcYeqWyx7u2kibcNgAAxIeK72EqDVNzfVaYCnAn6YviHkc61VAhL9nGdZYAU1R8AYDg6zPgfZR9da/X8OLaV8UzL+9TfnruFGzcefmh32ezqN3nSEMl1idedAPBFwAIvtkE391wNdkJV9WIYe6b+2efyNczlb9q71JD9bvb839fuf37x1Mw34iqLwi+AEDwzSz43nehYTjES33SUOFNkY9q70rDLBabVwb0C9kvOkHVFwRfAIgIL7eN73+v/Pf7RI+7NQ69vesUfNLrX+hbaqjGWncwPnM7AABA8EV+LENep2Fe5TGD6jZInyfcGQAAAARfBDAxDL2W07bNNQxJSO28AAAAgi8Chd7KYLu9/KxIt5TdWFyGOwAAQPBFRo6MtutzVboT7T9DxCEa2b9EBwAACL7wpDXY5kr+Z7c4Sej8AAAAgi88qzRUNcd2GuBYOtkMeTjiMgEAgOCL9FmE3qX8DXG47zyRcwQAAAi+yCD4fg14PBuNP8SC4AsAQAT+4BTglSqD4LkOfEzfNO40ZBWXCSwksJIl7jq/lYZ5veud//v9YVCdwgzzAl4stRUkCb54rbHHr64jOCaLfWgjOTYA9iG3dc/GWvziAxB8gSf8G8E+bPga9nY94rZOZTOlHGCt1TBndyv/qzVONe584cd8nSD4Av6sI9qPlq9jrwZ/LBWnE4mZSjpT2KXJa55VAMEXAADLDt8icOAF8ALM6gAAwH4qF3ivCb1Amqj4AgDwvFrSlXhZDSD4AiM3LjGgcQOw+zy4FuPQgeQx1AGxeR/BPlQ0cAB2ngdXPBMAgi8ergr8PcI26oSOeTPy9toIjsliHzpuDyBJV2I8L5ANhjq8PiC1GiYqHyssXbhPr2FKre8altDdRHoOxp53dxv8Qx7vR4Nt9twuQHJmYqowICtUfA830fBW7y8NY77OjB6MlftbF5J+us+F4ht72hmd41Aqg7/fcdsAyanc8x0Awbc4taS5C59XGiYtrwLsw0zSjfuE2IeHbAy2+U/gjs3Y55XgC6TnQozrBQi+BQbehQu8oVfn2dXs7Nc88MO50/g/429Dvm+VbCo8P7iVgKRUCvvLEwCCb7DAO4384XwWQQBeG2wzREdjZvQ319xSQFImotoLZImX2x4OkrNE9/sfSeeSLj3//e8avzpSuc7HsadjaGVT7e3FUAcgNdbDrTYaXlr+997zoefUA8Zub2+T+hj38H9Jus3gcyO/L8FNDI9l4WH/G8PvfpH7I2TET8sTGZEUEqyeZ9cG1/l85H0Ess6RDHW4m5w8pwnKGxd+5x7O3cKdOytT4/DYyHZFpm/cYkBSrDpgpxp+wVpzioFwSg++24A4yfT4zgxD3Vz+xkBvw+/Yx9Eah96Nhp8zAaTVLliE3ktOLUDwDWnqQm+d+XG2LqA2I2/vTH4r5Nvvqx1hW5WGqYqujY/hK48YIDlHI29vTegFCL6hLZT/2Mv7QW879+9L1S4oXgfsLOzuQ/vC8zB3wX3mYX+XPGKAJJ+XYzrnlAIRKfDltoXyeIHtpZ9Dw2+loToa47FsV7NrnwnLE92ttudr30rpWPFyG7imn35GWZuLl9tAjtz7U9p0ZgvFPS+vr3Mg7VeNnMn/kIZD1G4fZ+6/9/rv1EAhgxRVHgArTgEQl1KCb6Xh5/GGr/z/w++RpJNH/v+thkpqk+D33EawH5eyWcoZgP0zZEz/ckqBuJQyxveK0PubqX6vftfuXNFJeLleVHuBVI393Os4pUBcSqj4LsTYwafOjTT8HDeTzcplpTkRqy8BAEDwDWAmxvTuE37PlP+0bj6sxJg+AAAIvgG0Gsap4nmE3tfb6PEx00AsKj3/c34vfqIHLDV6fjz5RrwrQvA98OF+xdcLT3pJn8QQB8TX+W8lvXed2+bAf3/b8H7XsAjDmlMKHJxFWnfvHe0ZeO/r3OeHuwfplBJ8H3SleKfgQn5OeRghArWGOauPNM4y7LX7tLob/7+S9E0szgI8ppH0eSfwjrG95l6HdC3pC+3OC2W4gMVMZS9QEeMiExMNK8exIEiGjxClt4BFZXw9+h5iNdUwE4vP6/6XO876wH0dcz/nAa9Vq8/1C77/udJcwKKR3aJCv+R3CF/lssfPAO3roW1QO/ZzO7kcmVnwreR3da5DPje6W273OuL9HPPBM/MYNgi9BN99XSn9Ffsq3S2/Hfo+WGj/X9gIvgRf69Dr89lcK47VYA8JwATfzIJvLMsR37iHUbtHg9C4iuhFJI3YWBWvKkCljdBL8A35jPAVeucRdpzvd3QJvgTfUL+4+Hg2xxJ4H8oezz1HCb4ZBd9W4XtcsxF+XmncDZViRfh6j+OvjCtuPhp4Qm+awfci8dDbJtA5fu4ZQPAtO/jmEHpj7Hgecm8QfDMKvteK/yeGl/yUmUIA3o7jDfmw9nWcDVk3yeA7Na6yVMZhIaXO4q8nvkuCb9nB17Kdtg69TWK/WD72XCL4ZhJ820AP97mHYBFzo/fac9AmVNleiJlCUg2+KYfeRukOgZoSfAm+OyyHBli/UDpL9B58qFhD8M0k+Pqu9t4EqPxNIguJYwXBSnGOlXpNNZvgG0/wbZVu6J0m2tg+FX4JvmUG31TH1sfePu1boGoIvnkF36agyl8dwU8t10ahv1W44SpPNaxUedMNvo1hZ9E69Kbe2D4Wfgm+5QVfy2qpdejN5WXsXzvPK4JvBsHXZwOxiCBohLoZrcYyP1Tlugn8gFiIZZxTD76Wodd6jtCcQu/20xB8iwy+lr9aWLbHMRSZrDrrBN/Eg29VWOgNFX5DVD5bzwFgOysHFd70g6/l/fFLtsOccgy92/urIvgWFXwnhufpyjj05jrP/oLge6u3iTe6E09/ZynpJKLj7iUdy99yhUv3N31au3P+l/vnyuBvbCRdSvog6Z37z72Qsm24ahK87xbKd6q8Wv5XtEM4jWGxqDNsjysXqnMtgEwlfSz94vwj8f338QVa3mSvbYQ/yX6s4baDcRnwOJfuI9dbbSW9d41pc8B2Ovf54YL1hvYpO6mG3rnynx96SseymNB7bdQude4+tLiOLDvNMZkRfNNVyb7iuw2Xsdq4UH5l/Hc+Bwy+963d5772iXNEwC3DwrDRsgy9U0lnhXxHFZdp9t9viqFXGn6RaPgKCb4xm3j4G+cJhKaV+1iej8Y9yPqIz8Oa27n40Ds12vaJYehtxBAAEHpDh96ZWJGzGCmP8T0y3n6neKqczznNpKMBxNZonehumI1VYK/4CpFJ6G0Mtt27+9Aq9NL5LEzKFd82gzA5lo0L6TPjjsaSWwaRmRo2Wtahd67wP61u9PivWrXymtbvzZ7tyvWIf/NYZfwaZTVMoJf9i9wxzNjUPRHsW4Hg6+GBvEnwYfXFOPg23C6IMPRaNVrWobdWmHG9a0nfXEO77zOudff/RxphPBIcp4mG3hCdz17D8MTvunvh+jmVu/eONPz6WnPZvUKi8/hO5H+N+VQeQJbnBfjtEaIw8/g2sptr00cFyOcqhT9dAz9GY1m5DvZPhZ+TdG7wvbSKd1GWp8JbqOf8hdKcL3t7Lfucr/d6xGzRuOdUDPMNs4CFp+A7N/4iq0RDiHWHgGoPYgi+qYfeVv5WIZwZHsc0cAAm+IYNvtPE2xpfi8VcGx5P5SEPsYBFJP423PZK6c41ab3v/LyC0CrZvTm+lJ85uy88PQu2i7JYWWpY/OWcy7I4U9kOM1ob738t+192ew3vClmO8+5d8H0nZjbaW6rB1zKAfU/8O10net6BEkJvK9ufcHt3HJ88deC3De8HsThFKRqlO7Z+y3p8fecC76Wn72Tj/t4pl2e+wbcxvmBT9sNw239zyyBw6LW499fytzqjZYPbu8ZvGeD76TRUnTou1exD77XRtn2F3kq21d617F/Ke8ylx04vwTdAI2h50abMcv9rbhkEYjVdUid/qzPWshvr1wdsbGPaB9iHXov299Rjh21muO2lbBfa2Mcqgn0g+CZkk8ExcLEjN1bTJXWeG4h/CgichN88VbJbbGUpv4tFfTbabqd4hhr47NATfAm+UVzwQC4uMgm9UppLKr80/J6ITnhOoddqmNFS/oYZyR1DbZQdYquyrj2fW4Kv8YULIH9T2fwsGaKRmsimWnap4afNGDvgNLp5uMok9Ep21d5YO3rLSJ8PBN8X9D4B5B96Ld4c7xXm5Y8jowAf81RiKxrd5C1kMy49ROjddkAtOp/riL9Dfn3JIPgCyFtjGHpDjT+1aHBTaNBodNMOvVOD7XaBQm+j8Yc59Ip/HuteTHOWfPBd87UBWYdei+mSQobe2qDBXSfyLOwlfeGyTs5MtmPrQ2gNtnmaSMduqTzeYSo2+Fo3uhwDEDb0VhmFXqsGN6XV0i5F1TclU9msLrgNvaGuhbGHG/UKM2d2Cc8Mgq9HFccABHNmdP2GnvXg/cjb2yitX756MdY3JRbDjEKH3m3Hekyp/ZKxFFXfpIOv5c3TJv6dWu5/xy2DxDptJxGErtIb3FT3GeO116FDb6XxhxstE/wu6IAmHHwtA1iT+Hd6ZLjt/3HLICG+lkD1/UxJsfHqRLWJ0JvPPZjq9fyVSzLd4Gt5wX1M/DttEz3vQI6hVxq3kp1ygFxxWRYZersI9qUeeXvfEv1O6IAmHHz/NQ6OVaLnZZJwhwMYy3lEoXfsjug64e/lO5cmoTeT4Jvyfbgu/eJ8yxcXJEBa+cwNg8J1kuYZH9/3xL8blOE08+875bbw39IvTsb4PuwswXNSGwd2Gi2koIms41qNvL1Nwt/NhsuzGBeK65fTMd99Sb0tXJd+caY8q4PlQ7SWzeTdKYd1gi9SsdD4P22+JohzH9LolqaSdJXpsfV8vQTfXB+gKVV9fQR1xueBRhfAvlrlOeyIzifBNxjrIFZrWLYxBRce/saK5zgS0ni6L3zq+VqRmDPlt5oo03om7o+E930lmxVm7t+0K8U9Nm0i+zGNXeSNbq2nf9pec6sXaeY6yLl02jq+UiToStIHOm4g+L5e7xo0y9BX7dy0sQa+hYe/E9Ok1637vHeVhPqAf3ftOjHfd/4z4nGq8au0C+Uzd2XDJQIPzjXuUL9tO/WJUxuFqvQT8Dbx/fcxiXTjKVy+NJT7uIhXgY9z6o71VtK1eyhPdPgLTK3b1kLST/e5IFBEo3Ph1+I+ocGKp7OOuM01/q8LE6UzdPA5f9OBJviGtJKfn0+mimuQfuUCoK8LeBrgGFsXWH65oDoxaoRnkm5cCJ7RGw7uUuMPTWkC3r8bwi/BN0GfDNrWXIoMqV/DxbdxqQffXv6qkWeRhF/foXd77D/lZ37Uqftb1/I7H2vtHszbKjABOK9G90y2y3n7Cr4pB4eWSzsZGw3Lfo/N16+U93Xcg9nsf/HBV5K+eA6AIYc91AFC7+7fvjL8+62GymvoOVgrDZXfn66jQwAO06HNqdGl0bp7hiAdK42/9HcdqA0dcyaGKvFr+aj0CzuH4NvJ71v7UxfQfF/4E/d3Qzd8uwF1jBBRGQfq1+yXz0o3fm90Lw2+U9/jfTsaLRrchJ1q/F8tJvI/3rc3aAdT1ZZ+Ub/N5DjOPf+9xoW/uacAdqX4qlVT3Y2Lfc0DMPZgGev5L8G5QXBs5XfIEg3uf+93pKWXzWwMvsf70gHlHswu+K7lf67WSncVwanR9ueRB8NKd+NiD22QLxILkxPFUXEvrdG1GPLge7zveuR7LsXGa0LHMVmdbIpLPp//ncH1nKKPXM75BF/Jf9V3q9bd9FhzvX4IRLOzvbNEGotaw1CF6z2Ov3L/u1mC19j2OKeCz0b31GC7PhvdDY0XDW7i5hq/uLRtO311ons6oFR8JUm3t7dJfZ6x0DDXa+jPjYaK5mSPINjov3PL3mbweWxWhMqdmxyOkfDrHiEjftpngurY3+G1p3M0M9j3KqFrpDK6B+cG+9p6vKbHDKVj7vNTQfWXwffoqwhynejzYyxTo/uwTS5HZhZ8K6Mbc4zPr52q6LXyCH/PHe8s09BL+PUffK3u7bmHc9Qkut+xBjOCb5jgu60YWnyXTaLXYZvQfWhVWCP4Bg6+VtUVPq+rfk8yDL2EX7/B1yKU+Gy8xg7tv5TOMCirYgTB13/wlftFb+zv8qeH69ni+ZFK1deq2ptk8M1pjO/WpcIusYvfq11XyvelsAXh15u1xp/iTPIz3nc98vYqF0Bil8p7CtifxWwrtezH+65lM8tK7FXfVJ4V3rzN9LhO5GcpY2BbAWk4DV6cGjS6lezn9/1msM1p5I1uS6cwS71sZluZyH6879pgm2PNaU/nk+D76hvzE18vPPaomec37Y5tK9txsyuj7cba6FYKu8olbHWymW3Fuohg0QGtFW9FtVWaMygRfF/RszvlK967o4DXP/xo6P01uhbTF1rO79sbhd9a/lej2zeQ11yqWbuUTQXVsohg1QGdKr5fN2J9NhB8PdyYS77mJ51Ieqdw8yDnZCLmSfR5b1s0YpaN7lej7baRdboW3AfF+KTxCye17CqovWEmiOl9j0r8Cvm4DGd1eOyCZIaF52ckqFXGVGvW07iV9LAJ+QZ8JZspeizf1LacqzuG8OvzWTs36kQwq8PhHf6UZsxplfdMP5X8zqLErA6RsnghJoeK2f2e70bSsftsOEUvfuiccRq86GXzkk0ru/G+Xw3PxzRwlYcZTsq0ks1sK1bjfdfGeSDkfdC4jnvDZflUuaaMim+IXlDMn30rQzPFuyDIY3NBxrJISF3KIySC6thc6czvW3m4p248N3x1oGerReekFRXfl7oxupYtOnJTT+2sz07oJFB7zQIWEQff3d4YwxsOa6gvFO/iGPNnGpfaPRAWnh8KpbzoFktIsGh0rYatzOUvGFo3vPOAnWOCb1zBtzG6FqyepT/lpxhjXf2tZbOkO8E3o+BbcvidvvLmimX87+KFFa3KnYOfouqbW/CtjRpdi7eifVR9d8P72AHY931E8E0j+G5/JUxl3OzE47V6bXAMdSRZhuCbSPD19VNHTC9cNSM+LEI1eDcjNSS+qthz5S+mkGB1T88MzttMYTqMk1eE4BC/nBB80wq+Mqo+jtmG7fJdzPnp2p6XXhe1e87F9BJ6csH3zchh0tybN2/G3FzjbtKcK3Nr2Uw5M5f0j/yNYVpqeElxzONoZfsy0EbDVHG5B9+xHOv184JeyWYqrQ8a/4UY32Nxd3Xu86/7Z/9A57CR9Kf7ZxvhtXduEH5bjTurxxjX9D7P4jFfqH1tI1u5gFcZXLPHI7cBjbsPQ7bPnaT/PXKd1O7z3u1rjFnl+Pb2dq2UFFzx3b1JQ46PSbniWMnPTy2W42Ub4wrWRHmLrTq2bXQtKjWVwbXHy7ZUfHOr+FqcR8u2YM69xHRmpeldRdSiKhpK5ypUcw/n7kS2y0MvZTNllWUVYddHbrEg9/PYaoNGtxMLxyBPa9lMcTbV+GNl52K606IQfO+sNPwsfZnwMfQahgN88Hwj14YPzxMP+98ZhveWWytIx88iUE40/nhfGl3kymr+fIv5fU+UT+ELBN8XBcd3Smup49419KGC+5HRMZ14PIa1UViqxWTiIcxlM7bSotG1/MUBCMnil9RK48+R27m2HwTfYm1c6Io9AO8G3nnAxrM12Oa5/K8ed2n0N1tuqSCsqjhjvxDZFxJ+e1HdLrEttQiUjeuEjmmpMoYebUq/KAm++wfg84gumG5nv0IG3u0DqDI475cBOxJje8+tFPT+HVstm/G+uVec+Dm5TEsNQwnHNpXNeN9l5p3P4ivbBN/9G9C5C5qf3I3h+wHeuTD4TsMY3hD78FgIGNvXgMezMjivDbdQ0O/ToiGbaPzxvkv5Hd6TQ/hBOp2ejcF2rcb7LjP+HorvfBJ8X9aQnkj6ywXQcw1jCce+mDY7DeE27J4qvp8pLEJdyIdOb9BAE3zDsrpvLBrdHMNvJ6pMpeuNrutK44/3zTX8XtL5JPiO9UCfaxif95fGGRN8urOt7c23ifgc/G1wTkMf7zejBzTCNbpWs3ZYLICydB3dPpNzz8t7kOxeIG40/njfbfjNZczvks4nwdfKRsNKSK8Nfik1ErXBwzGGB7TFwxlhO6mnRtf/wmh/fU9LSOiFtbnRNT2VzWJBc6U/PGCpfIdQEXyRhR+RNNgbvorsXBp1aiYaf7zvtiN9rDTnFu80/GrVcdnhHqvFohayeedk6e7DFK9lQi/BFwnYsB9IsNG1GO+77YSduoY3lWtyGxR6Ljc88my1Gu97ZdiR277Tk4LenWNCL8EXQOF6w8bAYrzv1nqn4e0jPrefxJvjeN5KNi+PNbIZ77s11/BLxjric9u5jueSy4zgCwDbRvfSYLu1bMb77gbLue6mM4zJ0gWCFZcX9mQ128pMNuN9tzYuWB5HFoC3nfrU3w0g+AKAgXOjxmEim/G+9xve3YV1+ggCL1VevCSoWc22YjXed9d6JwCH7IhudLeC65LL6nl/cAoQmTaSXnTDV7GX4xG31Xnc722jWxtt21eDN3efiaSP7p+V8d/tNCwys3zBsZ6OuH8bo2NL7ZpeKu6f3p87Px+U9nSPa/c51TC7xEf5WaZ+pWHqzWUB1/i4bm9vk/okYC7p9hWfNrFL6PqVx3v/s4jgmOqRjynF7xVpdx7nI96bvzSMX57JvooG5KByIfhC0s1I9+FP1z5OY+sopJYjqfjitb6PHOpiCIgW+7DmUoHnCtRuR67eua7/fiLA9rqbUnCtoaq64ZQCB+n1eyW2dYG1cf/96Il/f6NhTYBeQ0W1E0OJRkPwxRg3+Ji2DXTIoPgx8nMESNK+v4JtwyudLyBsh1TiBdDgeLkNr9UZbPNzwOOpNf4bwR2XCQAABF8QfB8yVbixhGeJnCMAAEDwhWe9UbC7CHAstQvdY/vOZQIAAMEXeVgbbHMi20nIH7JI6PwAAACCLwKwqmgu5G8+3blsZnPoxMttAAAQfJGNlVG4q1z4rYz3fyqbsb3SMNE/AAAg+CKz8Guh0TARf20YehcJnhcAAEDwRSCWlc1Gw+o37YjbrFzgtQy9azH5PwAABN+M/TlCIEuRdcirNFR+F3p99XfqgvQ04c4AAAA40Js9V/6JZ4ffvIltl2oNlciPuluS8LU2Lkh+U1o/lU9lW0HdtZT0RftPpVZpmCXiTH7mCN5IescjBpZSe34DAME33eA7dWF3Yvx3ehd+vyqNabF+yu/iE9tOwo8HQnDtPkeymbHhKSf6fa12gOALAATfZIJvJWkm6R+FGZLQaahyxhyopvJX9Y3VRlR7QfAFAIJvwsF3HjDwPhSsThXvMIgb+Zt/N0ZUe0HwBQCCb5LBt9U4L1RZWLuQtYlsv1oNL6KVaCXpE48WEHwBID7M6vC4StKFbOeQHSNg3mgYfhFbIL8s8JrpNVTiAQBAhKj4PqyRdBVx4H0sbH5SPMvjVq7T0BR0P30SC1bAIyq+AHAYKr6/myruKu9jWsU1trbXMAyjL+S6WRJ6AQCIGxXf/5ppGN6Qsl7Ssfaf39baREP1PGedpA88TuAbFV8AOAwV3zuLDEKvNAwx8LEq2b5WGiq/OYfeY24fAADiR8V3cKH4XhAbw7HiWfQix3Pca6j0bniUIAQqvgBwGCq+Q2V0lumxXSmeMb+nymumh951LAi9AAAkovSK70T5jz/tFVdVcqr0V3brXOjteYQgJCq+AHCYkiu+jcpYWreKLNwvFde0a4daEXoBACD4pmahOJYf9hXyY3pxbxseu8TO43nioR0AAIJvgeYqa2EFaRjH3Ea0P52GIRjnCZy7jQvqcx4ZAACkq8Qxvo2G6b5KtHFhs49svxoNFek2wnN2ruGlvF5AZBjjCwCHKbHie1Hw910rzhksOg0V1RPF8xLeUtI7DVVeQi8AABkoreI7VRkvtD2lV/xzz04lnSnMstFLDVXeDY8HxI6KLwAQfJ/y03OY6iR9c//sdbeYRKXh5/1a0nsN06r53K+l0lhNbSLpo+xXodtI+uLOS89jAQRfACD4ph58p/JT7e13QtTmgH+vlfRZ/pYafqd0qpqVOz8f3T/H6CSsXadkrfRmlwAIvgBA8H3StexfnrrU8DN5/4pt1C6gW+/rudKdpaDSUDFvJf2p52fo6CX9cEG/I+iC4AsABN+cg28j25kceg3zu65H3OZMti/i9ZL+4hYACL4AUIpSZnX4bLjtTsOMBOuRt3sp2xXCKg1jaAEAAAi+GZkah97OaPtr4/D7kVsAAAAQfPPRyGZp4l5+lq/tJJ0abXvCLQAAAAi++bAKdz4XW1hqGPowtkpxrpYGAABA8H2BI4NtrtzHp9fOFvEYgi8AACD4ZsIi2J0GOI7e6O8ecRsAAACCb/oag22uFG7hh6XGr/o23AYAAIDgm77aYJtfAx/TcuTtVdwGAACA4Ju+xmCbq8DH9M1gmy23AgAAIPhi15p9AAAAIPjGaOwXt75HclzdyNtruBUAAADBFzHqR95exSkFAAAEX+xaZxp8AQAACL6IEsEXAACA4GuqjWQ/ar4KAAAAgi8O13MKAAAAwTdt3cjbi2V53zby8wQAAEDw9ex/I2+vieCYGi5bAAAAgu99m5G3V0maBD6mzwbb7LgVAAAAwZfge9/HwMc0dvDuxRhfAABA8E3e2mCbU4WbVcHib3fcBgAAgOCbB4tgdxboWCz+7nduAwAAQPDNw9pgm1P5n9N3LptK85rbAAAAlODN7e1tWjv85s2h/8pE0pXBrmwkfZCf8bGtpGurU8ptAKQptec3AIRWQsV3ZRROaxdGK+P9b4yC+/bcAAAAEHwzC79WodQy/Fpv/xu3AAAAIPjm5avhtrfhtBl5uxPj0NuLii8AACD4Zmctmzl974ff2QjbqiRdaBjeUBnu80rM3wsAAApSwsttW1NJCw+7uJF0Lml54L9Xu338R/bjhiXpnXFnAIAxXm4DAILvU37K3+ITvYaq6ncNcwl3D/xvWg3V4iP5XQp5KemEyx8g+AIAwTff4DuVn6pv7Kj2AgRfACjO28KOd0ng0yXnAAAAlKi0iq9kuxhE7HoN1d6eSx9IHxVfADjM2wKPea2h6lmiE0IvAAAoVYkVX2mYNeFG/l50i8FK0icueSAfVHwBgOC7r8aF3xJsJH0Q1V6A4AsABXtb8LF3KmNKr15DpZfQCwAACL4FW+rwhSZSc6KH5xAGAAAg+BbmJOPwe6JhbC8AAADBl1OQbfjNOdADAAAQfAmKhF4AAACC736B8TLh/e8JvQAAAA8reTqzp0wlXWiY7zcVnXiRDSgK05kBwGGo+D5sqWHe21RC5KWkY0IvAAAAwfclNi78nireOXA3LvDGvI8AAAAE30RcugC8jGifeknnbr/WfEUAAADPY4zvYWpJZxrGAIcKvF9cGO+5fIGyMcYXAAi+vgLwVNJn95+tdS7wrgi8AAi+AEDwDWUi6cj9c8wQ3En65sJux6UKgOALAATfmNSSWknvJTXuv+8ThjsNL6r9cP95LSq7AAi+AEDwTVSj/84LvHEfACD4AgDBFwAAABgH05kBAACA4AsAAAAQfAEAAACCLwAAAEDwBQAAAAi+AAAAAMEXAAAAIPgCAAAABF8AAAAQfAEAAACCLwAAAEDwBQAAAAi+AAAAAMEXAAAAIPgCAAAABF8AAACA4AsAAAAQfAEAAEDwBQAAAAi+AAAAAMEXAAAAIPgCAAAABF8AAACA4AsAAAAQfAEAAACCLwAAAEDwBQAAAMEXAAAAIPgCAAAABF8AAACA4AsAAAAQfAEAAACCLwAAAEDwBQAAAAi+AAAAAMEXAAAABF8AAACA4AsAAAAQfAEAAACCLwAAAEDwBQAAAAi+AAAAAMEXAAAAOMD/DQCNaRjd3ksGsQAAAABJRU5ErkJggg==;strokeWidth=1;" vertex="1" parent="1">
          <mxGeometry x="1754" y="454" width="338.9" height="178.14" as="geometry" />
        </mxCell>
        <mxCell id="WwwLS8CgqeU5e52Q2BZr-42" value="&lt;font style=&quot;font-size: 28px;&quot;&gt;&amp;lt;interface&amp;gt;&lt;br style=&quot;font-size: 28px;&quot;&gt;IQueryDispatcher&lt;/font&gt;" style="rounded=1;whiteSpace=wrap;html=1;fillColor=#ffe6cc;strokeColor=#d79b00;strokeWidth=1;fontSize=28;" vertex="1" parent="1">
          <mxGeometry x="881" y="889" width="385" height="79" as="geometry" />
        </mxCell>
        <mxCell id="WwwLS8CgqeU5e52Q2BZr-53" style="edgeStyle=orthogonalEdgeStyle;rounded=0;orthogonalLoop=1;jettySize=auto;html=1;entryX=1;entryY=0.5;entryDx=0;entryDy=0;startArrow=classic;startFill=1;strokeWidth=1;" edge="1" parent="1" source="WwwLS8CgqeU5e52Q2BZr-43" target="WwwLS8CgqeU5e52Q2BZr-42">
          <mxGeometry relative="1" as="geometry" />
        </mxCell>
        <mxCell id="WwwLS8CgqeU5e52Q2BZr-43" value="&lt;font style=&quot;font-size: 28px;&quot;&gt;&amp;lt;interface&amp;gt;&lt;br style=&quot;font-size: 28px;&quot;&gt;IQueryHandler&lt;/font&gt;" style="rounded=1;whiteSpace=wrap;html=1;fillColor=#e1d5e7;strokeColor=#9673a6;strokeWidth=1;fontSize=28;" vertex="1" parent="1">
          <mxGeometry x="1369" y="889" width="385" height="79" as="geometry" />
        </mxCell>
        <mxCell id="WwwLS8CgqeU5e52Q2BZr-52" style="edgeStyle=orthogonalEdgeStyle;rounded=0;orthogonalLoop=1;jettySize=auto;html=1;startArrow=classic;startFill=1;strokeWidth=1;" edge="1" parent="1" source="WwwLS8CgqeU5e52Q2BZr-44" target="WwwLS8CgqeU5e52Q2BZr-43">
          <mxGeometry relative="1" as="geometry" />
        </mxCell>
        <mxCell id="WwwLS8CgqeU5e52Q2BZr-44" value="&lt;font style=&quot;font-size: 28px;&quot;&gt;OrderEntity&lt;/font&gt;" style="shape=process;whiteSpace=wrap;html=1;backgroundOutline=1;fillColor=#dae8fc;strokeColor=#6c8ebf;strokeWidth=1;fontSize=28;" vertex="1" parent="1">
          <mxGeometry x="1860" y="884" width="360" height="89" as="geometry" />
        </mxCell>
        <mxCell id="WwwLS8CgqeU5e52Q2BZr-49" style="edgeStyle=orthogonalEdgeStyle;rounded=0;orthogonalLoop=1;jettySize=auto;html=1;strokeWidth=1;" edge="1" parent="1" source="WwwLS8CgqeU5e52Q2BZr-45" target="WwwLS8CgqeU5e52Q2BZr-47">
          <mxGeometry relative="1" as="geometry" />
        </mxCell>
        <mxCell id="WwwLS8CgqeU5e52Q2BZr-45" value="&lt;span style=&quot;font-size: 28px;&quot;&gt;&amp;lt;interface&amp;gt;&lt;br style=&quot;font-size: 28px;&quot;&gt;IEventConsumer&lt;br style=&quot;font-size: 28px;&quot;&gt;&lt;/span&gt;" style="rounded=1;whiteSpace=wrap;html=1;fillColor=#b1ddf0;strokeColor=#10739e;strokeWidth=1;fontSize=28;" vertex="1" parent="1">
          <mxGeometry x="1955" y="713.5" width="385" height="79" as="geometry" />
        </mxCell>
        <mxCell id="WwwLS8CgqeU5e52Q2BZr-50" style="edgeStyle=orthogonalEdgeStyle;rounded=0;orthogonalLoop=1;jettySize=auto;html=1;strokeWidth=1;" edge="1" parent="1" source="WwwLS8CgqeU5e52Q2BZr-47" target="WwwLS8CgqeU5e52Q2BZr-48">
          <mxGeometry relative="1" as="geometry" />
        </mxCell>
        <mxCell id="WwwLS8CgqeU5e52Q2BZr-47" value="&lt;font style=&quot;font-size: 28px;&quot;&gt;&amp;lt;interface&amp;gt;&lt;br style=&quot;font-size: 28px;&quot;&gt;IEventHandler&lt;/font&gt;" style="rounded=1;whiteSpace=wrap;html=1;fillColor=#e1d5e7;strokeColor=#9673a6;strokeWidth=1;fontSize=28;" vertex="1" parent="1">
          <mxGeometry x="2415" y="713.5" width="385" height="79" as="geometry" />
        </mxCell>
        <mxCell id="WwwLS8CgqeU5e52Q2BZr-51" style="edgeStyle=orthogonalEdgeStyle;rounded=0;orthogonalLoop=1;jettySize=auto;html=1;entryX=1;entryY=0.5;entryDx=0;entryDy=0;startArrow=classic;startFill=1;strokeWidth=1;" edge="1" parent="1" source="WwwLS8CgqeU5e52Q2BZr-48" target="WwwLS8CgqeU5e52Q2BZr-44">
          <mxGeometry relative="1" as="geometry" />
        </mxCell>
        <mxCell id="WwwLS8CgqeU5e52Q2BZr-48" value="&lt;font style=&quot;font-size: 28px;&quot;&gt;&amp;lt;interface&amp;gt;&lt;br style=&quot;font-size: 28px;&quot;&gt;IOrderRepository&lt;/font&gt;" style="rounded=1;whiteSpace=wrap;html=1;fillColor=#d5e8d4;strokeColor=#82b366;strokeWidth=1;fontSize=28;" vertex="1" parent="1">
          <mxGeometry x="2311" y="889" width="385" height="79" as="geometry" />
        </mxCell>
        <mxCell id="WwwLS8CgqeU5e52Q2BZr-54" value="" style="endArrow=classic;startArrow=classic;html=1;rounded=0;edgeStyle=orthogonalEdgeStyle;entryX=0;entryY=0.5;entryDx=0;entryDy=0;exitX=1;exitY=0.5;exitDx=0;exitDy=0;exitPerimeter=0;strokeWidth=1;" edge="1" parent="1" source="WwwLS8CgqeU5e52Q2BZr-16" target="WwwLS8CgqeU5e52Q2BZr-42">
          <mxGeometry width="50" height="50" relative="1" as="geometry">
            <mxPoint x="691" y="280" as="sourcePoint" />
            <mxPoint x="896" y="56" as="targetPoint" />
          </mxGeometry>
        </mxCell>
        <mxCell id="WwwLS8CgqeU5e52Q2BZr-56" value="&lt;b style=&quot;font-size: 23px;&quot;&gt;Store Order&lt;br style=&quot;font-size: 23px;&quot;&gt;Query API&lt;/b&gt;" style="text;html=1;strokeColor=none;fillColor=none;align=center;verticalAlign=middle;whiteSpace=wrap;rounded=0;strokeWidth=1;fontSize=23;" vertex="1" parent="1">
          <mxGeometry x="494" y="806" width="144" height="30" as="geometry" />
        </mxCell>
        <mxCell id="WwwLS8CgqeU5e52Q2BZr-60" value="" style="group;strokeWidth=1;fontSize=22;" vertex="1" connectable="0" parent="1">
          <mxGeometry x="2925" y="131.5" width="203" height="277" as="geometry" />
        </mxCell>
        <mxCell id="WwwLS8CgqeU5e52Q2BZr-59" value="&lt;span style=&quot;font-size: 17px;&quot;&gt;&lt;b&gt;Event Store /&lt;br&gt;Write Database&lt;/b&gt;&lt;/span&gt;" style="text;html=1;strokeColor=none;fillColor=none;align=center;verticalAlign=middle;whiteSpace=wrap;rounded=0;strokeWidth=1;" vertex="1" parent="WwwLS8CgqeU5e52Q2BZr-60">
          <mxGeometry x="14" y="247" width="189" height="30" as="geometry" />
        </mxCell>
        <mxCell id="WwwLS8CgqeU5e52Q2BZr-61" value="" style="group;strokeWidth=1;" vertex="1" connectable="0" parent="1">
          <mxGeometry x="2966" y="825" width="388" height="420.99" as="geometry" />
        </mxCell>
        <mxCell id="WwwLS8CgqeU5e52Q2BZr-72" value="" style="group;strokeWidth=1;" vertex="1" connectable="0" parent="WwwLS8CgqeU5e52Q2BZr-61">
          <mxGeometry width="203" height="277" as="geometry" />
        </mxCell>
        <mxCell id="WwwLS8CgqeU5e52Q2BZr-62" value="" style="shape=datastore;html=1;labelPosition=center;verticalLabelPosition=bottom;align=center;verticalAlign=top;fillColor=#dae8fc;strokeColor=#6c8ebf;strokeWidth=1;" vertex="1" parent="WwwLS8CgqeU5e52Q2BZr-72">
          <mxGeometry width="203" height="233" as="geometry" />
        </mxCell>
        <mxCell id="WwwLS8CgqeU5e52Q2BZr-63" value="&lt;span style=&quot;font-size: 22px;&quot;&gt;&lt;b style=&quot;font-size: 22px;&quot;&gt;Read Database&lt;/b&gt;&lt;/span&gt;" style="text;html=1;strokeColor=none;fillColor=none;align=center;verticalAlign=middle;whiteSpace=wrap;rounded=0;strokeWidth=1;fontSize=22;" vertex="1" parent="WwwLS8CgqeU5e52Q2BZr-72">
          <mxGeometry x="14" y="247" width="189" height="30" as="geometry" />
        </mxCell>
        <mxCell id="WwwLS8CgqeU5e52Q2BZr-66" value="" style="shape=image;verticalLabelPosition=bottom;labelBackgroundColor=default;verticalAlign=top;aspect=fixed;imageAspect=0;image=data:image/jpeg,/9j/4AAQSkZJRgABAQAAAQABAAD/4QAYRXhpZgAASUkqAAgAAAAAAAAAAAAAAP/hAytodHRwOi8vbnMuYWRvYmUuY29tL3hhcC8xLjAvADw/eHBhY2tldCBiZWdpbj0i77u/IiBpZD0iVzVNME1wQ2VoaUh6cmVTek5UY3prYzlkIj8+IDx4OnhtcG1ldGEgeG1sbnM6eD0iYWRvYmU6bnM6bWV0YS8iIHg6eG1wdGs9IkFkb2JlIFhNUCBDb3JlIDUuMy1jMDExIDY2LjE0NTY2MSwgMjAxMi8wMi8wNi0xNDo1NjoyNyAgICAgICAgIj4gPHJkZjpSREYgeG1sbnM6cmRmPSJodHRwOi8vd3d3LnczLm9yZy8xOTk5LzAyLzIyLXJkZi1zeW50YXgtbnMjIj4gPHJkZjpEZXNjcmlwdGlvbiByZGY6YWJvdXQ9IiIgeG1sbnM6eG1wPSJodHRwOi8vbnMuYWRvYmUuY29tL3hhcC8xLjAvIiB4bWxuczp4bXBNTT0iaHR0cDovL25zLmFkb2JlLmNvbS94YXAvMS4wL21tLyIgeG1sbnM6c3RSZWY9Imh0dHA6Ly9ucy5hZG9iZS5jb20veGFwLzEuMC9zVHlwZS9SZXNvdXJjZVJlZiMiIHhtcDpDcmVhdG9yVG9vbD0iQWRvYmUgUGhvdG9zaG9wIENTNiAoV2luZG93cykiIHhtcE1NOkluc3RhbmNlSUQ9InhtcC5paWQ6NjM3RDEwMkREMDEyMTFFNzkwMEZGRUNFMTk3OTNCRUEiIHhtcE1NOkRvY3VtZW50SUQ9InhtcC5kaWQ6NjM3RDEwMkVEMDEyMTFFNzkwMEZGRUNFMTk3OTNCRUEiPiA8eG1wTU06RGVyaXZlZEZyb20gc3RSZWY6aW5zdGFuY2VJRD0ieG1wLmlpZDo2MzdEMTAyQkQwMTIxMUU3OTAwRkZFQ0UxOTc5M0JFQSIgc3RSZWY6ZG9jdW1lbnRJRD0ieG1wLmRpZDo2MzdEMTAyQ0QwMTIxMUU3OTAwRkZFQ0UxOTc5M0JFQSIvPiA8L3JkZjpEZXNjcmlwdGlvbj4gPC9yZGY6UkRGPiA8L3g6eG1wbWV0YT4gPD94cGFja2V0IGVuZD0iciI/Pv/bAEMAAwICAgICAwICAgMDAwMEBgQEBAQECAYGBQYJCAoKCQgJCQoMDwwKCw4LCQkNEQ0ODxAQERAKDBITEhATDxAQEP/bAEMBAwMDBAMECAQECBALCQsQEBAQEBAQEBAQEBAQEBAQEBAQEBAQEBAQEBAQEBAQEBAQEBAQEBAQEBAQEBAQEBAQEP/AABEIASwBBAMBEQACEQEDEQH/xAAdAAEAAwEBAQEBAQAAAAAAAAAABQYIBwkEAwEC/8QAVRAAAAQEAgQKBgUHBwoHAAAAAAECAwQFBhEHCBIVITEJE0FEUWSCosHhFCJhcYGRIzI1Y6EzQkNSYnKxFhdzdIO00SQ0OFaSk7KzwtMlKEZTVGVm/8QAGwEBAAIDAQEAAAAAAAAAAAAAAAUGAgMEBwH/xAA5EQEAAQMCAgcHAwIGAwEAAAAAAQIDBAURITESE0FRYXGxBiKBkcHR8BSh4RUyIyQzNEJSU2LxFv/aAAwDAQACEQMRAD8A9UwABET7m/a8AEQAALcAAIifc37XgAiAABbgABET7m/a8AEQAALcAAIifc37XgAiAABbgABET7m/a8AEQAALcAAIifc37XgAiAABbgAAAAABET7m/a8AEQAALcAAIifc37XgAiAABbgABET7m/a8AEQAALcAAIifc37XgAiAABbgABET7m/a8AEQAALcAAIifc37XgAiAABbgAAARGvup9/yANfdT7/kAfbf3PE9rSv8ugA1D1zueYBqHrnc8wDX3U+/5AGvup9/yAPtv7nie1pX+XQAah653PMA1D1zueYBr7qff8gDX3U+/wCQB9t/c8T2tK/y6ADUPXO55gGoeudzzANfdT7/AJAGvup9/wAgD7b+54ntaV/l0AGoeudzzANQ9c7nmAa+6n3/ACANfdT7/kAfbf3PE9rSv8ugA1D1zueYBqHrnc8wDX3U+/5AGvup9/yAPtv7nie1pX+XQAah653PMA1D1zueYBr7qff8gDX3U+/5AGvup9/yARAAAl5Dzjs+ICXAAFRAAEvIecdnxAS4AAqIAAl5Dzjs+ICXAAFRAAEvIecdnxAS4AAqIAAl5Dzjs+ICXAAFRAAEvIecdnxAS4AAqIAAAAAAl5Dzjs+ICXAAFRAAEvIecdnxAS4AAqIAAl5Dzjs+ICXAAFKdmEAwrQejYdtXQpxJH+JgP1bdbdTpNOJWXSk7kAmJGpKExK1qJKS0TMzOxEW0BU6xzFYC4fmtFaYx0dKHG/rNRM5YS6XY0tL8AHMphwjOSuWuG09jzJnVF/8AHhop4vmhoyAQMrz+5Ppu4TUNjpImlK2F6U2/Dl83GyL8QHWKPxWwxxBbJyhsQadnxKK5FLpky+r4pQozL5AOgSHnHZ8QEuAAKiAAJeQ847PiAlwABUQAAAW4AARE+5v2vABEAAC3AADMWb3PBgzlfh2ZbUUcud1W40bsPT8uWk4jRO2it5R+qyg7b1bT5EmA87Zjnjz75pJy/J8A6RmEpgTVokzTUsN9xpPJxsY6kySftLQIBJw2QnhNcSyKY1nX8bLje9Y0TitHVKK/Shk3CL3AJZHBYZ64BPpMBjpJkvltImqmmKFX9/FAP2LLTwu+EyDiKTxInc6aZ2k3B1aiMSZF91FmV/dYB88Tnx4RXAlxpnHjCJ2ZwMNsU/NqfchNIuW0TDkTR7t9jAfbXXDLzuPpBmEw5wjZlVSvkaX4qZxvpULDnyG0hBIU4f71iLoUAo0nwr4UjNu0ifx81qmWSSPSTrLswmJSSCU2raRoYRoqUm24yQdy5TAWyB4HDM5NUelVDjVSsPEq2mRxcbEHf2q4sgH2FwUedKiD9Nw+x/k5Pt+sgoSdzCBUZ+wyRb5mA/GYZFeE8xZiWaQxPxYdRI4JJITEzGrXH4daT32ba0luH++kuTaAutLcCTJYVgovEvMC/pb3ESuVIaSR/wBK8s7+/RH2ImeEPkzEc1wY4JjJdL0k1NcaKicdIrK059ANbfdxQ2xj3p5Uz8pa5v2o51R83+IngeMrU/bNFI41VQ28f1TTHQMWX+yltJn8xjVauUf3UzHwZU3KKv7ZiXJ694F/FulHFTrBbGSWTaIhz02GY5pyWRNy3aLralpv7TNI1s1DgM0ef/JHOoOmscpLOJ3IW18W1D1HeJadQW/0aYI0jvbcWkoi/VAehGWLOrg5mhgPRqXmCpRU7DfGRdPzBSUxKCLepoy2PIL9ZO0uUkgO/ALcAAIifc37XgAiAABbgAAAAABET7m/a8AEQAALcAzBn8zewuU/CT02SGxEVtUpuQVPwzllJaURfSRS08qGyMrFyqUkt1wGFMjOQOc5no93MtmcmMyjJBNYpyMhoWJeUmJnrml6z7zm9LFyMitY1WO1kltDZWIWcLCbAuBLDbAijZXGlKy4hJQaEw0shlFssnQK7p9JlYv2jFhwfZ+7kRFd+ejHd2/wg8zW7diZosx0p/b+Wd6kzsZhqheUtmsGpQ0Z+qzLoNtskl+8olK/EWC1oeFbjjTv5yhLmsZdzlVt5QriM0mYRDnGFixPTPoNxJl8tGw3f0nC/wDHDT/Usv8A8krNIs7uYmSrSb1XQ00bLeiOgGl3+KCSr8RouaFhV8qdvKZb6NZy6P8Alv5w7Ph1wgE9qiZQlJ1bhO3OIiZOJhW0SdwzW8pR2txLtyV/tEQisr2cot0zcoubRHf90jja7XXVFFdG8z3fZ1zELCDJ9hlMGMd66wmpCUzmDLSYfKXN8ct8yvZLKPUcdLkVomZbTuW8VzHxbuVc6uzG8p6/k28ajrLs7QzriZwg+IE6iHYLDOUQlOy4jNLcTENpiItaeQ7H9Gj3WO3SLbi+zlm3G9+elPyj7qzka7ernazHRj5y4rMcyGPM0dN6LxYqMjUd7Mximkl7kosRCVp0zDojaLcfJG1ahlVTvNyfm/WWZmMfZQ4lyExXqBWid9F+J49J+8nCMh8r0vDr524fadRyqOVyXWqG4QjFiROts1pKZXUkIViWom/RYi3sUj1DP3pEbkezmNc42pmmfnDvs67fo/1IiqPlLurNZZa85ssbkM1iImU1Ils0sMPPejxjZ/dKIzbeTfk2+4hETYztEq6dPGn5x94SkXcPV6ejVwq+U/yyZj9lZrnA2JVMnUnOaadXoszVhsy4sz3JfTt4tXt+qfIfILHp+rWc+Ojyq7vsgc7TbuFO/Onv+7jLL70MsnYZ5bSy2kpCjSZfEhKTETwlHRMxydNoPMvjbh262ciryYPwrZ/5nMFnFMKLo0XLmXZMhwZGl4mTHv0Rv3xwl22NRycf+2rh3Txaww5zbYSY/wAoVhhj1ScphFzRJMLRGtk9LIxR7CK69rSr7r8u5VxV8/QLuPE3LHvU/vH3WLC1q3fmKL3u1ft/DHGdHg5aoy7xx5hcrMwmupJS7rCIgIZ5Rxslsd+OYWXrOMlykd1JLfpJuZV9NtK5BM8sDmWkB0LXTsPB4iSaHJbyU2Q3NYdNiOIaTyLLZpoLdfSLYdiDeAAAiJ9zfteACIAAFuAAABEa+6n3/IA191Pv+QB9t/c8T2tK/wAugA1D1zueYBqHrnc8wDX3U+/5APGPHSKmee/hIIXDNmIdVTcqmhSBsm1maWZfBmpca6XQa1JeO/tQXIA3XnXxfYwto+UYDYckiV+kwCERKYX1PRJcgtBthFvq6eiZH+yn9oWX2f0+L1U5NyOEcvP+EBredNqmLFueM8/L+WCRc1TAAAAbkyU4XSDD6hJnmOxAShhJQ7ypct5P+bwiLk48kj/OWZGlPsLZ9YVLXMuvJvRg2fj4z3fBZ9HxqbFqcy78PJmLHfGqoscK3iakmzrjUvZUpqVwGl6kKxfYVt2me9R8p+wiE/p+DRgWoop59s98oTNzK827NdXLsjuc4Hc4wAAAH6MPvQzzcTDPLadaUS23G1GlSFFuMjLaRj5MRMbS+xMxO8NqZac3sNUzDeEOPC2I+FmKPQoWaxiSUl4lbCZir7DvuJw+Xf0iq6po02p/U4fCY4zEesfZZNO1WLkfp8rjE8N59JcvzY5YYnBeblVVKtOxFHTN2zR7VKgHT28Ss+VJ/mqP3HtLbIaRqsZtPV3P74/fx+7h1TTZxKust/2T+zO4m0QANo5Lszsa7HwmCeI0WqOg44vRpNFxB6akKtshXDP6yFFsTfcfq7jK1V1zSqejOVZjbbnH1+6yaPqVXSjHuz5T9GMc6OHDOR7O3TWI+GDSpXJJo8xUkFDNbG2fpjRGQyfuzLS9XkS6RcgqKzvZyAqtiZQMPMYWF0mYppDzZ6e9KiIyPd0GA+jX3U+/5AH239zxPa0r/LoANQ9c7nmAah653PMA191Pv+QBr7qff8gDX3U+/wCQCIAAEvIecdnxAS4AA53V06TTdJzqolnZMrl0TGnfobbUv/pAeX3Ay0wdW4+Yh4pTRs3YiVyji0Oq22fjYjSUq/TotLLtGAkcyFXvVxjfV88W6bjSZk5Bw9zvZlg+KQRfBF/iPSdMsxYxKKPDf58VB1C712TXV47fLg5qO9xAAAnaFpWMrispJR8AR8fOI5mDSZfmktREavgVz+A05F6LFqq7PZG7bZtTeuU247Z2bQz41jCUHhzS2B9MGUNDxTSHIhtGy0HDkSWkHbkUsr9gVb2fszkX68u5zj1lY9buxYs0Y1H5EMJC3quAAAAAAAA3vlNxelOOtATLADFRSY+MZgVNQy3lXXGQRFbee3jWjsZHvsRHyGKdq+HVgXozMfhG/wAp+0rVpeXTm2pxL/GdvnH3hjzGLDGbYQYhTWhptpL9Dc04V8ysURDK2tuF7y39BkZcgs+FlU5tmm9T2+qvZeNViXptVdnopY6nMmKOmD8qq6STOFWaHoSYwzyFFvJSXUmX8Bqv0xXaqpntiWy1VNNymqOyYdi4cCSwzlN4UVKSCKIRGTOCvbaaFNsrt80/iPLHo7dWES3XMJ6KciDM3VU7LTXffpHDN3/EBbAEvIecdnxAS4AAqIAAAAAAl5Dzjs+ICXAAHD8xLrjGAWI7zRmS00pNTIy/qrgDF3AgwbLdIYtTUk/THHyxkz/ZS0+ovxMwglxGfPrip7Molw7rdjHnFH0mazMx6rbjaiI8Hm9c71TPi+AZsAAAaKyHUwif4+QkxeaJbcil8THbS2EsyJpJ/Nwz+AhPaC71eHNMf8piPql9Et9PKie6Jn6IfOjVa6pzB1C2ThqYkxMytkr7E8WgjX31LGzQ7PVYVPjxa9Xu9Zl1eHBw25FvMS6MAAAAAAAAWKgapqCg6tlNbU6l4ouUxKIhBoSZksiP1kHbkUm6T9hjRkWqMi1Var5S3WLldi5F2jnDZ+dmlJTihg3TWPVNs6S4NllTyiL1jgoi1iV7W3DIvZpKFW0O9ViZVeHc7fWPvCx6xapycenKo7PSWDhcFWTtBS1ycVzTsqaSZrjJrCMERftPJLxGnIq6FmuruifRtsU9O7TT3zDsHDVRhzZ7BqgYQzVEx8dMHktlvPSOHaT+KjIeWvRnoHTssTJaflkmQVkwEGzCkXsQgk+ACQAS8h5x2fEBLgACogAAAtwAAiJ9zfteACIAAH6YrSBVV4X1fTCCuqbyGPgUl7XYdaC/FQDze4EObNIgsXKQf9WJbflkWaT36NohtWz2GRfMByOsJc7KKtncqeSaXIOYxLCiPpS6ovAep2KunapqjtiHnF2noXKqZ7JlEDa1gAA2XwbUuQupq1m5p9ZmBhIYj6CW4tR/8BCr+09X+Hbp8ZWL2ep9+urwh0Sa5SMH5JUc+xTx4rZt9E0mURHFDuRJQcI2lbhqSg1X03FERkViMvcOGjWMmuinHw6OURHfP8OyrS8eiuq/lVc537ofCzjhklpSIOSUlhyxOTRsNUupsoi5Fy6TpEpXv2jOcDVbsdO5Xt51bejCMzTbU9G3Rv5U7+r7V4ZZWM1EjmLWHkCxTtSwTekfEQZwUTDKP6puw+xLiDPYZl8yMYfqtQ0muJvT0qZ8d4nyll+mwdTpnqY6NUfCfkwZWlITqgqrmlHVCxxUwlMQqGeIvqqMtyknypUVjI+gyFxsXqMi3F2jlKr3rVVi5NuvnCEG1qAH+2GXol5uGh21OOurJCEJK5qUZ2Ii9pmPkzERvL7EbztDf1AYBYJ5baFl9cY1wjE4qWONCUQ70OcVoxCiuUNDQ+3jFlyqMj29BCm5GoZep3ptYs7Ux8OHfMrVYwcbT7UXcnjVPx+EQs1T5oToGSnPIrLNV8vp9BpSUZEQrEK2klHZOkgr6F9lr2HPa0r9RX0Iv0zV3cZb7updRT0pszFPwhJ11iRJcWcn9VVzLZK7LYGOlEWlqFiNE1INDhoI/V2fWTchhj41eHqdFmqd5iYZ38inK0+u7TG0TEvMUX5SnY8odLqqrMHScObek1L4hczd2bCSyg1FftaJfERes3epwq57+HzSOlW+ty6I7uPyffnPIsZeE6whwpZLj4Wl2YCIjEFtJNnVxrt/7NDfzIedr09TAABET7m/a8AEQAALcAAAAAAIifc37XgAiAABbTIjIyMrkewyAeTXB/JVgzwj2LeDb30UPMim8NDoPYR8TFJiGbf2JqMvYA/uaynDpfMDWUCTeg3Ex3p7ZW3pfQlz+KjHo2kXetwrc90bfLgoep2+qy648d/m5MJJwAAA2twa8SRTKuoTZdTEC6XwU6XiKr7Tx7tufP6LJ7PT71yPL6sz45VfVtW4nVE5Vk9i5i7BTSKhWCeWZoZbQ6pKUITuSRERbiE9gWbdnHo6uNt4hDZt25dvVdZO+0ytmV3MFC4BVVHx02p85nK5uyhmJNkklEsmgzNKmzVsMtp3Tcr7Nuwc2q6dOoW4imraY+TfpufGDXM1RvE/N2ZOaym8QszGH03pCl1SaDbiVyuNjYhKExMc3E2QSXCQZloJVomRGZnfbsEX/SLmNgXabtW884jsjZI/1Oi/m26rdO0cpntndVOEMphuU4wy2omWySmeyhtThkX1nWVqQZ+/R0B0ezl3p400T/xn1aNet9DIiuO2PRloWFBgC8YHMwkTjLRDEeSTh1z+CJZK3GXHJ8bDkz5mMW5Md0+jpwoiciiJ74adz+1dU1JYr4fzmRxqodyUQa5hBKsSkpiSf2q0T2HsSgj9ggPZ6zbvY92iuOc7T5bJvXLtdq/bqpnlxjz3cVxfzbYp4y0y1SM/1bASzSQ5FNQDKkHFLTtSazUozsR7dErFe3QQlcPR8fCudbRvM+PYjcvVL+XR1dW0R4drR1dn/Ibg95XLC9RyaS6BaP2nEPk8r8DMQeP/AJjWpq7pn9o2TF//AAdJiO+I/ed2BhcVVbR4OSiyVM6rxHi2yS1CMNyqHcVuJSj4x0yP2Elv5iq+01/amixHmsns/Z3qrvT5OPZKNLH7PljRmRdSp6WSh1+Albp7U/Sr4lmx+yHh1f7YqKzvU4AARE+5v2vABEAAC3AAAAiNfdT7/kAa+6n3/IA+2/ueJ7Wlf5dABqHrnc8wDUPXO55gGvup9/yAeV2ZCJTgdwreHuKhNnBS2rnpa5ErI/VMnUqgH7n7iSo/eA6/wi9KHLsSafq5puzc5lZwzirb3WFn/wBLifkLp7NXulYqtd0+qp6/a6N6m53x6MlCyIAAAGyuDZJX8qa2V+bq+EL48YsVf2n/ANO35ysXs9/fX5QzFi4aVYq1ipH1Tn0cZf79Yn8P/b2/KPRC5X+vX5z6qkOlzpSlo9yV1PJ5myo0rhI+HfSZchpcSfgNd6np26qe+JbLVXRrirxhtHhJIFt2V0HO0p9Y3YyHM/YpLSi/gYq3szVtVco8vqsftBTvTbq82GhbVYAH3SObREhnUvnkIdn5dFNRbf7zayUX4kMLlEXKJont4M6KpoqiqOxubPXIobELBykMYZEknmYM21uLTttCxaEmRn7lkgu0KloFycbKrxq+31hZtaoi/j0ZFHZ6SwWe4xcFWb5zS/T5LqKehNrCUyU1W/V9GMi/Gwp2k8NVuRP/ALeq1alx06jb/wBfRgYXFVW6K+n5ZRODvm85WsoSoZxK1NsFuXrGYeoj4ttqv/ZGPOdWyf1WXVVHKOEfBfNMx/0+NTTPOeM/F9HBf4EuYbZV5LPJiXo81rh5dQRJKb9YmV2TDke3/wBpCVdsxGu9rfX3U+/5AGvup9/yAPtv7nie1pX+XQAah653PMA1D1zueYBr7qff8gDX3U+/5AGvup9/yARAAAl5Dzjs+ICXAAFRAeeXDD0FEPUBQmL8qbNMXTE4XAPPJ3obfSS21fBxkvisB2fMpHQ+OWTehMapcROuIhpfNnFJ26KYhom30/Bw0kf7on/Z291eV0J/5R6cULrtrp43Tj/jLCovKnAAA3DwbUu4uErueubEacFDEfuJ1Z/xIVL2mq3m3R5/RZvZ6naLlfl9WNawjymtWzyZkdyi5lEvkfsU6o/EWizT0LVNPdEK7dq6VyqrvmUQNrW+6RQrkdPJdBMpNTkRFstJIt5mpZEX8Rhcno0TM9zOiN6oiG3OEgim2KaoOUGouN9Ji3bfspbbTf5qFU9mY3uXKvL6rL7QTtRbp82FRblXAABvjJ7UspxowGqHAeqHiW9LWHIZslHdXob1zbWn2tuX93qCna1aqwcynMt9vrH3hatJuU5mLVi19npP2YfrClZtRFUzSkZ4ybUdKYpyFeTbYZpOxKL2GVjL2GQtli9Tft03aOUq1etVWa5t1c4bgrMv5V8HjLI5XrLl8tgl36DYiSaP8CMVOx/g61Md8z+8brLe/wAXSInuiP2llvLNhgvFfGKR088wbkthXSmEyO2wodoyUaT/AHlaKO0LBqmV+kxaq45zwjzlB6djfqsimjs5z5QvPCGzSNzLZpsKclNJvqVBQkW3NqjNnczppuelbdxcKlxXveIecL69JpTKoCRSqDkkqhkQ8FL4duFhmUFZLbSEklCS9hEREArgAAl5Dzjs+ICXAAFRAAAAAAEvIecdnxAS4AAqIDjub/DD+eDLdXlENME7GPSpyMgCtc/SoezzRF7TU2Se0A4BwZdSsY5ZIanwRmb3GR1NPRspQhZ7UMRCTfh1W6CcNwi/cG/FvTj3qbsdktORai/aqtz2wyrFwsRAxT0DFtm2/DuKadQe9K0nYy+ZGPUKZiqN4edzE0ztL8h9fABuvg5I1iLpOvKeJZFEelQ79uXQW0tF/mn8RUPaWmYu26+zitHs/MTbuUeTEc/lsTJp7MZRGtmiIgot6HdSZbSWhZpMvmQtluqK6IqjlMK1cpmiqaZ7HwDNg7JlHw/exBx1p6GNk1wUne1vGHbYSGTJSSP3uaBfEResZEY+JVPbPCPikdKsTfyqY7I4z8F74QOt2aixghKXhHSW1TMvSy7Y7kUQ6fGLL3kniyHH7O2JtY03J/5T+0OrXb0XMiKI/wCMMwCwIQAAHQsBsVYzBzE6UVmypaoNtz0eYsp/Swi7E4Vuktii9qSHFqGJGbj1Wp59nm68HJnEvxcjl2+TSmfPCiCnEulOP9HpREQkYyzDzNxkrpW2oiOHiNnIZGSDP9wQXs/lzRVVhXeccvrCZ1vFiuIy7fKef0lY2C1RwcyyjvVOIlSuLJXLxkd6n8SMaJ9/W+Hf6Q3R7mkce76v8ZY5PIMtWXGpsw+IKShlRUAuZq09iygmiPiGk3/OdWdyLl0kDn9oMzr7/U08qfVv0TE6mz1tXOr0cx4LbDuoMSKpxCzt4kw5rnVcTGIgpMbhX4uH4zSfWi/5tybZT7GlEIBNPRYBUQABLyHnHZ8QEuAAKiAAAC3AACIn3N+14AIgAAW4B/DIlEaVERkZWMj5QHljlZUeU3hMK/wFjFHC09iCTrkpSo7IM1Xi4S3JsSp5n37ADOPh4rD/AB0nRsMcXAT+04hTIrJ+lM+MIvc4S/mQ9C0XJ/UYlO/Onh8v4UfVrHUZVW3KeLiAlkYAO4ZQMXYbCXF2FenEQTMlnzerI9ajslrSURtun7Ertc+hRiJ1nDnMxp6P91PGEnpWVGLkR0uU8JdBzyYATCm6qiMX6YglREhnqicmPEp0ihIo96ztuQ5sO+7Sv0kOLQdRpu24xrk+9Ty8Y/h16zgzbufqKI92efhP8snCxoFvjJxIJZg7gDUuOdRMEl2YtOxLZqKxnCQ9ybQR/tuaXv8AVFO1q5Vm5lGJR2es/aFq0minExKsqvt9IYbqio5nV9RzOqZy8bsdNYpyLfUZ/nrUZmXuK9i9hC22rVNm3FunlHBWblybtc11c5RY2NYAAADeWTGuZPi3hHPsvlav8c5CQrrUMlZ3U5AO7PVvytLPZ0EaegU/W8erDyac212z+/8AK06RepyserEudnp/DqOKFAS+p4Kh8tcjSspPCph4+dKL9HK4SyUIUZfnPOkRF+6s+QR+LkTam5nV/wB07xHnP2h3ZNiLkUYdPLhM+UfeWTeEcxBm+NuKND5BcH3UpXGRUNF1KuH/ACcK2ktJppdtyWmiN5Rf0ZbxETM1TvKTiIiNobew8oWn8MaGkeH1LQpQ8qkEC1AwyLbTShNtI+lSjuoz5TMx8fVhAW4AARE+5v2vABEAAC3AAAAAACIn3N+14AIgAAW4AAebHC44fTmj5rhrm1odtTU4o6YtQUc82VjJKXSehVqMuQnOMQf9IRAOrZnoaTZjsslI5iaLbS96NBtTJRI2qTCvkRPtn7WnCK/RorFg9nsvqcibNXKr1QmuY3W2Iuxzp9GEheFPAH6w0NERsQ1BwjDj7760ttNNpNSlrM7EkiLaZmfIPkzFMby+xEzO0PTvDyZqwEy1omeaOsJexLYFgkxGsE8YULDLsluEXvN5e22iRGe3R22uPOdSv2bmVNzGjaO/vnvhe8Czdt48UZE7z9O5zlWVfKpjuwVWYN4kQ0PDxn0tpJMGYuHK+38kozU2f7Nyt0EO3H9ocqzHRriKvPm5L+h492d6Jml1rGHAidVhgfLsGKBnsFKYWDTCsOvRaFmTrDCdibI5VLJKj9xjmwtQos5c5V6N5nfl3y6MvCqu40Y1qdojb9nnVi/gdX+CU5alVaS5CWoojVCR0Mo3IeJIt+iqxWMtl0mRGVxdsLPs51HStTy5x2wqOXhXcOro3I+PYoA7XIAAAA67lkorFypsSoKcYRoQxHSRxL8RHRCjRCstnsNDpl9YllctAiMzK/RcRuq38a1YmnJ5T2dvwSGnWci5eirH5x29j0+q5yrJfRs3m1HyGXzKr0SxZQMM48TLL8WSDNttTqiuTemZ7+Qz3XHncz2RyXqI7Z5vInCPCfhIcDcYKpxYhsuULVNW1StwoyZzR5mIJPGOabhtLbiUkklHokfsSRFYhi+tLy2L4WyukJQVE4X0G0ve9Guk64n26KXXtvvSAz/mWrjhMcoMyk2IGImLErnsimMX6M2uXw7DkvN4iNfEOtGy2tGklKrGW+x2URkA9R8CsTUYzYOUdioiA9COp5RDzByGvcmXFp9dBHykStIiPosAvYCIn3N+14AIgAAW4AAAERr7qff8gDX3U+/5AH239zxPa0r/AC6ADUPXO55gGoeudzzANfdT7/kAa+6n3/IBTsYcMpHj9hjUmGVQoJqCncA5CGu2kbbiiu26W7ahaUqL2pAYP4MXEyOoeoq9yEY0oSiPlUXGnKoeIP1Hk7UxcMm+9Kis8jpSpZjKmqaKoqp5wxqpiuJpq5SoOP2D00wUxGj6Uim3FS5xRxMqiVFsfhVH6u39ZP1Ve0vaPSNOzac6xFyOfb5qFnYlWHem3PLs8nNx3ONujKzgJTmENIxGYvG52GlfoMGqYQiY71US2GJNziHCP9IovqlvIjK3rHsput6t1szjWJ93tnv8PJa9I03q4jIuxx7I7vFhnNTiVmb4Q6vEsYRYU1hG4byZ5SJFDsQDiWIg9xxb7irN8YotxGr1EnbeajOsrA7Hkh4LeuqMriCxbzJuQcol0jtGwkgZjicW+8n1kriloPQS0i2kaCUekZFexXI/sRMztD5MxEby6Pmezh1PUlYlIMJKnjJTIZI9Yo6CdNtce+k9q9Iv0RbkluPefJa66Votu1a6eTTvVPZPZ/Kpalq1dy50LFW1Mdsdv8OxYmRMbjHkaTWtdQBNzuFl7czQ6prRM3mndAnUlyE4i57Nnr+4RmLEYWrdVZn3Znb5x9EjkzOXpnWXY97bf883niLqqIAAAD0GyxImFB5N51WdIy1URP4tExjmiaZNxxx5Bm016pXNWjoXIveKXqvRyNUptXJ92No+srZp29jTqrluPeneWTKex1zCUjUcRPoGsKkVMIlX+UojUrfQ6ZcimnCNOz2EVuQWO5gYV6iKJpjbw4IG3m5dqua4qnfxd1pHM7nQq/Qg6dw6YmTirF6QcidbQXtNZrSghEXtL0qzxrr2+KUtalqN3hRRv8Gi8N5Zjywwqs8fsR5VKYGDbOIXKZayyyy0kiuaomJUR+qXKSVW6Vcggsy7hUx0MWjfxmfSExi28uqenk1fCPrLzyzy5kV568U6Sym5dGVTiUNTpLsTN0oPiouJJKkG6joh2W1OKNZ/W2mWwivGJF6eYaSOU4YYe05h3I4M/QKblkNLGFGqxqS02SNI9m87XP2mAsuvup9/yAPtv7nie1pX+XQAah653PMA1D1zueYBr7qff8gDX3U+/wCQBr7qff8AIBEAACXkPOOz4gJcAAVEAAS8h5x2fEB598J3lprCVzyT50sCkvwtV0cpl2eFBp+lUyyd2owiL6xtl6jhcrdr7EmAv+C2PeAvCM4VQlKVnEQsixDlrZHES9LqW4lh8isqIgzV+VZVvNO225RbCUfZhZ13AudO38Y73Ll4dvMo6Fz4T3LHQmSfDDBqZO4j4p15DTKWSQ/Smyjm0QcGzo7ScfNSzJVrXtciv07hK5ntDdyLfV26ejvznf0RuLoduxc6dyrpbcmca4z04UZn831C4MzaPaRglLZov0l2MPi4afzNLavRVPkq3+Sk9oaKVbFHZSitYirycb7xSjMaaflMND4G0dS0wZbZ0OLjIlTCmrbibbIkoNNrfnl7h3YdGJXP+aqmPKPz0ceXVlUx/l6YnzlkbEWlc+mLPGSSp5JGsy507Lg4OIhoaFUXQrRXdZfvGYsuNd0fD9+3PHvneZ9FfyLWq5Xu1xw8NohY8HMhKZJFIq7HWcS9MDAF6QqVQ7/0RknbeIeOxEgrbSTsPlVYc+f7RRVTNGLHxn6Q34ehTTVFeTPwj6uzY61nRtdZS6tqXD6bQcykD0AuGhImD/ILS1EpaVxZ7jSSkKIjLYdtmwQ2kzNWdbme9K6nww64jueXo9GUQAAAB6HSHGGXZV8h8pxZmsidmyJZBNPlANvEyqIciovRSWmZHo/lSO9j3DznWK+nm3J8V70unoYlEeDgzfDZYPqZJ6LwLqtEUZXNKYuFUm/752O3wEdvLv2hUKp4bCopreAwry9oOKX6rS5nM1xBkfJ9Ew2kz92mPj65TOpPwmOf2Kblc/k05ktIxLhKUzEQ6pLJm03+spKvpIi28r8YfQA9Esl2RagMo1PuxbUQioK3mjRNzOeuNaOijebEOk7m21ff+coyIz3ERB24AAS8h5x2fEBLgACogAAAAACXkPOOz4gJcAAVEAAS8h5x2fEBKPMtRDS2H2kONOJNC0LSRpUkysZGR7yMgHnHmU4IiUVZVb+IeWysoeiZlEPHEuSeKJxMG26Z3NcM61dbG382yiLk0S2AOfUVwX2PVcTKEZzMZhI2Y05BLSrVkFNYuOceJJ7EkqIshov2iSo+gB0fH/gn8IsREQ8zwhmp0DNISEbhfRyZOIgYkm0klK1puS0uGRFpLIzue0yM7mApNG4RcLRl3l2psN61k9cyGXkSGIGIjmYtKEbbJQmLJDiS2fVSuxAJpzMpwvCv/Ck5YpUiLP1fSSlBmgj6dL0ri/xsA5Lm0w54QeeYA1Bi/mgxPYk0jljkI21SEueQgohTz6G7uohrN2Tp39dSz2bi3gNJ4BHxvBNy+35soiy+UzWJLSP99b8/o4NU/wBpX5Mej0ZQwAADvbYA1ZwmkY3RXB+0bRmkTbsxjJJBaFt5NQ6nl95sh5fl19ZkV1d8z6vRMWjoWKKe6IaDwPwfoKGwOw9lU+oaQTCJg6ZlrTi4uWMvL0/R0Gq5qSZ7zMc7e7BRdHUhITfORUrJ5cZaNjhIFpnp/VSQC3gACogACXkPOOz4gJcAAVEAAAFuAAERPub9rwARAAAtwAAiJ9zfteACIAAFuAAERPub9rwARADL3CXQpxWTSurFfiVS935RrP8AiApeVxzWXBQk0k9I2JbNUe7Qj3FCQ0mds235uHUo3xLnkyIPSFCAABJU1LVzmo5VKG03VHRzEMRdOm4lPiNd2roW6qu6JZ26enXFPfLvnDHRGs4fBHCeDO6ptO33CbLlsTDCNn9soeWTO87vR4jaNnpNKoBqVyyDljBETcIw2wgi5EoSSS/gPj6+Kfc37XgAiAABbgABET7m/a8AEQAALcAAAAAAIifc37XgAiAABbgABET7m/a8AEQAALcAAIifc37XgAiAHAs+srVN8oGJ8MlOkbUm9KIv6J1tw/wQYDjXB+PFUvBo1NJEHpLgFVBDW6D0eOL/AJg68CroZVufGPVy5tPSxq48JZRLaVx6a8+AAB03LPITqTHqiJbxemhM1ainC/YZu6f/AADg1S51WHcq8PXg7dOo6zKojx9F3zuLTiVwl+AWGKPpWpNq+MfQW3R0otcQu/8AZw6T9w82X56dAIifc37XgAiAABbgABET7m/a8AEQAALcAAACI191Pv8AkAa+6n3/ACAPtv7nie1pX+XQAah653PMA1D1zueYBr7qff8AIA191Pv+QB9t/c8T2tK/y6ADUPXO55gGoeudzzANfdT7/kAa+6n3/IA+2/ueJ7Wlf5dABqHrnc8wFFx1w7Os8Fa7pRD/ABi5rTkxhW0aH1lqh1kkt/61gGDeBhreVz7DrE3AuaRGjEpikzVthW9UNEMlDvGRfsqbRf8AfIZUVTRVFUdjGqmK6Zpntciruj5nQFYzijZw0bcXKItyGVcraREfqrL2KTYy9hj1DHvU5Fqm7TymHnd+1VYuVW6ucIEbmoAbD4PnC6LfqWZ4wziH4iVyqGcgoF531UuPrL6VZGfIhBGRn0r9hise0eXTTbjGpnjPGfJYdBxZmucirlHCHHcs9QlmY4UCt8d4Bs42nKPYiUy978w0JbKChjI/208a4XxFOWp6ja+6n3/IA+2/ueJ7Wlf5dABqHrnc8wDUPXO55gGvup9/yANfdT7/AJAH239zxPa0r/LoANQ9c7nmAah653PMA191Pv8AkAa+6n3/ACANfdT7/kAiAABLyHnHZ8QEuAAKiAAJeQ847PiAlwABUQABLyHnHZ8QEuA/ikpWk0qIjIysZHuMgHhzV38teDWzvqrqWyh+KpGaRD8RDIT6rcwlEQu7sOlW4nGlWIr7lIQZ7DAeh1U0DgZn0pGCxXwdrqDbnKWEtOPpSRrTs2MRjF9NtadpEe+27SKwmNM1e5ge5VG9Hd3eSK1DS6M334nar85uOo4PDGo4ziFTyl0saVuP9KdPZ06PF3Fg/wD0mLtvtP58UL/QcnfbePz4OiU/kVwuw3gjq7HXE6FVLoMuMfQbqZfBERbbLdcVpGXsLRMRuT7SXK46NinbxnjLvx9At0zveq38I4OB5tc/crrqTM5TMj0liZkudlqd6ZyqFUhK2VeqqHgkWJR6RX03jsWiarXuairly5Vdqmuud5lPUUU26YpojaIaayM5WmsrmEDckmxsP1ZPnEzCfRDR6SUu6NkQ6FcqG0mZX5VGs+UYMmiwEvIecdnxAS4AAqIAAl5Dzjs+ICXAAFRAAAAAAEvIecdnxAS4AAqIAAl5Dzjs+ICXAAFRAAEvIecdnxAS4AA4ljZgVhrmCot6hsTZCiYQKj4yHeQehEQb1rE6y5vQr8DLYZGWwB531BwW2Y3CCqXKpyw40pIiM+JNcc7K49KORClt3bcL3mkj6CATkuwg4ZScNqlJ4sPwrCLJVEOz+DI7dOmhBuHu94CWkvBLY64pzRqdZnszEVMPW03IeDeiJk97SS7EGlCPghRANw5ecn2A2WSBNGGVHtomrrfFxM7jlekTB8uUjdMvUSf6qCSn2AL4AAJeQ847PiAlwABUQABLyHnHZ8QEuAAKiAAAC3AACIn3N+14AIgAAW4AARE+5v2vABEAAC3AACIn3N+14AIgAAW4AARE+5v2vABEAAC3AACIn3N+14AIgAAW4AARE+5v2vABEAAC3AAAAAACIn3N+14AIgAAW4AARE+5v2vABEAAC3AACIn3N+14AIgAAW4AARE+5v2vABEAAC3AACIn3N+14AIgAAW4AARE+5v2vABEAAC3AAAAiNfdT7/kAa+6n3/IB8c2nEpblz03nk0hJTAwJEp6JinkttJJRkRGpajSRbSItp8oCrnidg0W/GWjit/91Df9wB+sDiFhLM4puCl2LlJxUQ6ei20zN4Za1n0EROXMwFuKfkZXKDuR/t+QD+6+6n3/ACAPtv7nie1pX+XQAah653PMA1D1zueYBr7qff8AIA191Pv+QB9t/c8T2tK/y6ADUPXO55gGoeudzzANfdT7/kAa+6n3/IA+2/ueJ7Wlf5dABqHrnc8wHF8wWOUvwXXLKck8teqKrJ4ZFASxojIiI1aJLWZXParYSSK5mR7rXEpp2mTnb11T0aKeco7P1CMTaimOlXPKFWhpznlqRso/jqIphDpaSYVxk3XEEfIrY5t+I6p/o9r3feq8fzZzR/VLnH3afz4vgnWKmcbCiGXP6wpimKwkkMWnFLlqFNuttlvV6tjIiLl0FEXKNlvH0rMnoWqpoqnlv+fVhcv6jiR07lMVU+DtWEeLNM4+0m3VFOGuFOHXxMXCOmSnWHjIjNCrWuViIyMthl8hE5uFcwbvV3PhPek8TLozLfWUfLuVLHLHukcGXWKfaTEVDVccReiyaCTdz1tiTcMr6JGe4iI1HyFyjfgaXdzYmvfo0RzmWjN1G3ie5EdKqeyFJlqc8FctFM4SV0nRcI8Wk1DxxGt8k8mkXrmR+8kn7B2VUaRj+7M1Vz4cvo5aa9Uv+9ERRHj+S/sXWmdyg0HNJnJKUrWBZLSdYgWzbf0eXRItAzP3JV7h9pt6Rk+7TNVE+PL6lVep2PeqiK48HQ8Fc0dJYxtvS1mWPSeoYIjOLlMU59Imx2UpB2LSSR7D2EZcpDiz9Mu4O1U8aZ5TDrwtRt5nuxwqjsQmYHHiocPaxoKnJNJ4B5ipo44WJcidM1ISbrKLo0TItyz39BDZp2n28y1duVzMTTH3YZ+bXi3LdFMR70/Z3DUPXO55iISZqHrnc8wDX3U+/wCQBr7qff8AIA191Pv+QCIAAHDs9H+h9id/U4T+9tAIrL/k3ywVTgZQFR1BgxT8bM5nTkvi4yJcQ5pvPLYQpa1WVvMzMwFnqng98pdSyWJlTGE8DJnnkGlqOlr7zL7C7bFpPTMjMj22MjL2AOV5Aq2rBcvxBwQrWdPTiKwwnqpXBxz6jU4uFNTiUoMz2mSTZVa+4lEW4iAazAS8h5x2fEBLgACogOJ4H4z1TiPizi/Q88hZe3AUHOYeXy1cO2pLi21pcMzdM1GSjugtxEA0HIecdnxAS4AAqIAAl5Dzjs+ICXAYvxJmEupzP7TE3rFxDEsdgWEwT752aQtTLjaDuewvpTPbyGYtOLTVd0aum1z3nf5x9FcyKot6rTVc5bcPl92oiMjK5HcjFWWN/HG0OoU06hK0LI0qSorkZHvIyCJ24nNwnCPDObZYWMUcQZlN5fEU67CuR8JAsGslNm2pxTSVXIi+qokbDE9lZlOrdTYpiYq5TPqhcbFq0zrb1Ux0ecQjclOHy6tVOMx1eJKY1DPo95EA68WlxDaTstaCPcZquguhKLFvG7XMnqejg2eFNMcWrR7HW9LMu8apng1uK2n1RAZSza0W7h5O5JmHoRBQM0gI9tmZk0Wil+/1FqIt97GhXSSiFm0TI/VUVYF7jExw/P3hX9Ws/p66c2zwmJ4/n7PizKT+EqqsMC6lgf8AN5pGNRbZdBLehlW+F7DZpFubNvJt1c44erDU7kXbmPXHbx9G6BVVjAFRAAAAAAHDs9H+h9id/U4T+9tAOeYGZ9sJ6OwZoek5jQ2JcRFSen4GCedhKZW6wtbbKUmptZK9ZJmWw+UgFqnHCI0zGwTkHhpgZipUtQPJNEFBLp1cO0pw/q6bl1GlN95kRgOP0f8Ay8ycYB1pjRX0sYisUMUZ+hyGlJGSksxb6l8Q0ux7TTpurURH0JvfaA6LS+TOPrOVM1JmJxbrio6qj0E/FQ8DOnIGAgVqK/EstNWKyb2vuO24BDVpLcQ8jD0txSo/EKoqrwsVMoeX1PT1QRZxjsAy8rRTEwzyvWToq2aPSZEdyPYFtzNVpVVf5g8LcukixLmFEUpWEriJ3MZrKnyh4uYpSSuLhWXj+ppEjk2nplvsRALTFZBcIDhVKlFY4lyyakn6KasVhGKiEOci7KUaD27baNgFYwRp3HGqcPa5wbxunVTQMRJpmcvk1YQayhY2ZQGldDzbhEfrFoWNVrmSyI7ntAcIy7ZeP5S4144SD+eXEmWfybn8LD+lwE74qImF0uHpxS9A+MUWjsPZvMB0SkGMSs7GJVYwMNiZUFG4P0NMTkaGpFEejx0+i27ktbj5FckcvKVlJ2XuZB1J/I5KKTYOc4K4w4iUpU8KXGQsTEz52Pg3nC2kmJh3bpcbUewyK2wzsA5nlQxTxcrSKzNxWI0zj4WcyJfFNQCY1xxiVxCIeKS4UNpH9Gg1tkorW5AHOsrmGuKWbLCeUVHi3jBWUvpaUm9L4GDlczU1FTV5LqlOxUS+d1KIjUTaU7bE2e0uUL5VD1aSmuqYyP4B1rOJS1BS5yc1NVUa76XMIOBW6pSWm1mRFxijWRErYZEpFrWMB02VZF8NomDfX/OLik3O0pI0zpNYRRRRObfXtfiz27baNgDLxiTinQWNc8yo441GdTR0LLinlJ1K62SH5nLtLRU2+RbDdQd9u/1VXM9hgOt414AUFjrKoeCqxh9iNgdL0KYwiiS+xpb07SMlJPYeiZe6w7sHUb2BVM2+U84nk48zBtZtO1znHKWeWcvWY/D5PF4Y45HFwTX5KDmhKJJFyJIlE4j5WEtOp6fk/wC5s7T3x+QjI07Nx/8AQu7x3T+S/wBPYq5u8OUKiK5wrl9SS9ktJ2Jln19Et6vojVb4oHyMPS8rhZuzTPj/AD932cvUcbjdtxVHh/H2fdW+PNLY1ZYcQn6ZJ+CmcFCw3p8uiLcayg4hBGojLYpB7SuXxIgxdOu6fqFuLnGJ32n4GRn283CuTRwmOcfF2HKMUMWXSivRraPobhqt+vx7ml+NxH6xv+uub9/0d2lbfo6Nvzi7AIxIKiA47m7KHPL/AFP6RbYUMaL/AK/pDdhLaJv+uo28fSUbq+36Ovfw9WcKoN46cy1G/fS4xFr/AKvpTGj+FhYLG3W5m35wlB3t+rxd/wA4w9HxSVuAFRAAABbgABmrhEf9Euuf6mz/AHpgBP5azvl7w3P/APLS3+7oAdIAZx4SOGfgMPcPK/dZW7KqOr6VTSakkjMkQxKUk1mXQRmRdogGtJfMIKawENNJbFNxMJGNIfYebVpIcbURGlSTLeRkZGAyxwl08gIDLFNafdNLkxqWMg5XLIYtrj8QcQ0uyE7zMkoUYCOqyjsvuK0fR+W3FmCeiq4kdOQ0xgzaJ6HfYQhtKHFtRKLFfSQd03P6t7bAHzqyYz2QXPDXNFirTxJ/JsRMzTMGE9BaDhFcvZcBZMqGMGLkwxSxIy6Y0ziBqOd4fHDPw1QQkOTHpsM8RGknUJ9UlkRoPYRb1Ed7XMIzKHtzL5oiv/6qgv8AlvAKvkLmcLSbOJmBU8WmFqml61mMY9CuHouPQr/Fk2+kj2qSege0uRSekgGq42Ng5bBvzGYxTUNCwzanXnnVkhDaElc1KUewiIuUBhfKtWUrxCnmaytJGelLpvEriIRdrcYzxMWSF9oiJXxAaH4OVKE5O6B0EkV0RxnblP017aA4/U2GbE74Raq5JUWIVYUaqsKShI2RRdPzP0ByNNgm0OsGvRPTIuLWrR/ZuA7HOMpaWeJ/8xuNq9K/16sM7bvuwHOaBw7wYkeaqHlTOJmI9W4jUrJXX1nOI/02FhIN5OibbjmgWiZ8aRki+9RGAnqVxjrSEzUz7CqsZ0gpK8hzU7C2G0WUaUONkSyIlKujTLaZ3MT97Bs1aZTk2o97t9JQtrMuxqFWPdn3exroQCaAHn9BUZLKmza4pULIEoZlM2lcfCxJNFZttxaGjM7Fs2Pnf3kYuFy/VZ0yzer5xMT6/RVrdmLuoXbVHKYn6fVcsnNdqkDM1wFrE/QZ9IIx5UIy8djdbNV3EJvvNKrqLpSq5bhxa7jdZNOba401RG7r0bI6uJxLvCqmeDUIrieW4BkfOxWr1aRMgy5UOZR8+nkey/HtNHpcQ2X5NK7brmemd9yUXPeLJodiLEVZ17hTTHD8/ZAaxe66acO1xqmeKt5raahaMqHAKk4I7sSd1uCQdvrE27Cpv8bX+I3aTdm/bybk9vH1atStxZrx7cdnD0auFVWQAW4AAAAAAcvzGYWQeNeF01wwj5u9K4eetJaXFstE4tokutuXJJmRH9S3xAf3Dyj2MPaDp6hYWNcjGaflsPLW4hxBJU6lpskEoyLYRna9gFhAS9W0nTtdU1MqPq2VMTKTzeHXCxkK8m6HW1FtI+g+UjLaRkRltAZrkuVDHvCiHOnsBc08dKKUbUfocmqKRszX0BBnfi2nlGStEr7CsRAPrkGUqNbryU4qY84rzbE+ppSZqlLcXCtwktlq7kemzCoM06d9ukZ7yI7XIjASOOWW2SYxTiSVtK6qm1HVtTWkmV1BKjSbraFXM2nEK2OIuZ7DtvVyGZAK1/NHm/WycvczXStMOZaBxKKKhyibdN+M0dL22AdZwCy40zgOzPJkxPprU1U1VElGT6oZsslRUc6V9ErFsQgtI7JLp3nsAUWqsoVSt4t1Di5g1j1PsPY2sFMuT6CZlzEbDxTjZWJaUumWgq1+naZ2Mr2AVKtaGy9ZoMWKhlktjKnpfFHDdxuXzKeSt3V0c4kyshZKSaieb2HZRpuRKItxkA+tGTiVTYkMYqY3YlV1JmFE4qUzeck3BOknbZ5LSUm4npI1WAULJ9IZPWNUZi5rTLbcJSlQz85JK34Voia4ppl1tRtEXqmlJOItbZtIBrHAHB6AwEwnkeFMsnURNoaSJeSiMiGktuOcY8tw7pSZkVjXb4APhx2y80Vj3Kpe1PomYSeeyJ/0uR1BKnuJj5Y/s9ZtfKk7FdJ7DsW49oDk01wTzhMQ7EjXm8hXpbZTaYxdHQ+sSRsLavT0TVb8628BbcD8vtH4GwczelMZMJ1UM/e9Jnc/mrvGxswd2/WV+akjM7JLZt5T2gIrHjLnLMXXoOpZPN1yGq5YRFCzBsj0Vkk7pS5ax7D2kotpe0S2napVgxNuuOlRPOEZn6dTmTFymejXHajZbNc99DsJlcbStK1s0wWgiN9KS26si3Go9Nu5+003HVVRpF+elFVVHht/9c9NWqWY6M0xV4/mz/cfOc9lbMKlcFSFKUU0+WguOOKS662R7zT67lj9ybhTRpFielNVVfht/wDCqvVL0dGKYp8fzdaMFsu8twPgIiPjZu5PKnnizcmczcIyJW0laCCO520jMzM9qj2nbYQ4tS1KrPmKYjaiOUOvAwKcKJmZ3qnnKJxqy4SHFSLYqqTzN6natgtE4eaQxGWno/VJwiMjO3IojIy9pbBlgarXhxNquOlRPZP0Y5um0ZU9ZTPRrjtU+Bj86lENlLYmn6arZhr1W4v0hLTqyLlUek2Zn7039o66qdIyPeiqqie783c1NWqWPdmIr8fzZLzWZ58K9ZVKoGl6ZoaHe9RyMKKQt5CT3mk9Nwy95Jv7R9oo0fHnpTVNfh+bPlVWqX/dimKPH83czaoLFnJtXrOKUxl7FfyiboTDzaPaZUqKYccUWnZSrrQo1blbl7jsdh3zkY2tWf08T0JjlHY4osX9Iu9fMdOJ5z2urZoMJ8QMZYjD6sKATCS96UIcjeKmxmy604s2VtkpBJVtI0bSMRmmZtjBi7av8d+HD4pDUcS9mTbuWeG3Hj8EBqfPH/rVRf8Auk/9oZdPRv8ArV+fFj0NV/7U/nwf61Nni/1sor/cl/2g6zRv+tX58X3oar/2p/Pg7DgxL8x0HNJivG2e09HQKodJQKZY2SVpe0vWNVkJ2aI4s2rBqpj9JExPbu68SnMiqf1MxMdmzrQjXeAIjX3U+/5AGvup9/yAPtv7nie1pX+XQAah653PMA1D1zueYBr7qff8gDX3U+/5AH239zxPa0r/AC6ADUPXO55gGoeudzzANfdT7/kAa+6n3/IBxbFDKtRGLtapxQklRVHQVbMMJhnJ7TkbxL0U0RWSl5BloOERFbaV7ERHuKwVyOyWVZU8MqT1/mvxNnkleLQiJe0uHgkxCOVDi2kaSknuMuUB2ugcIqQwwpSBomhYBiVSeXI0WIdlB7zO6lKMzupRntNRmZmYCw6+6n3/ACANfdT7/kAfbf3PE9rSv8ugA1D1zueYBqHrnc8wDX3U+/5AGvup9/yAPtv7nie1pX+XQAah653PMA1D1zueYBr7qff8gH+VztDiTQ5AEpJ7yNVy/gHIf6+2/ueJ7Wlf5dABqHrnc8wDUPXO55gGvup9/wAgDX3U+/5AGvup9/yARAAAl5Dzjs+ICXAAFRAAEvIecdnxAS4AAqIAAl5Dzjs+ICXAAFRAAEvIecdnxAS4AAqIAAl5Dzjs+ICXAAFRAAEvIecdnxAS4AAqIAAAAAAl5Dzjs+ICXAAFRAAEvIecdnxAS4AAqIAAl5Dzjs+ICXAAFRAAEvIecdnxAS4AAqIAAl5Dzjs+ICXAAFRAAEvIecdnxAS4AAqIAAALcAAIifc37XgAiAABbgABET7m/a8AEQAALcAAIifc37XgAiAABbgABET7m/a8AEQAALcAAIifc37XgAiAABbgABET7m/a8AEQAALcAAAAAAIifc37XgAiAABbgABET7m/a8AEQAALcAAIifc37XgAiAABbgABET7m/a8AEQAALcAAIifc37XgAiAABbgABET7m/a8AEQAALcAAAD+WLoALF0AIme/ovZf47v8AER8T+YB8T+YC22LoALF0AIme/ovZf47v8AER8T+YB8T+YC22LoALF0AIme/ovZf47v8AER8T+YB8T+YC22LoALF0AIme/ovZf47v8AER8T+YB8T+YC22LoALF0AIme/ovZf47v8AER8T+YB8T+YC22LoALF0AIme/ovZf47v8AER8T+YB8T+YC22LoALF0AFi6AH//Z;strokeWidth=1;" vertex="1" parent="WwwLS8CgqeU5e52Q2BZr-72">
          <mxGeometry x="52" y="96" width="91" height="105" as="geometry" />
        </mxCell>
        <mxCell id="WwwLS8CgqeU5e52Q2BZr-64" style="edgeStyle=orthogonalEdgeStyle;rounded=0;orthogonalLoop=1;jettySize=auto;html=1;startArrow=classic;startFill=1;strokeWidth=1;" edge="1" parent="1" source="WwwLS8CgqeU5e52Q2BZr-48" target="WwwLS8CgqeU5e52Q2BZr-62">
          <mxGeometry relative="1" as="geometry">
            <mxPoint x="2995" y="927.5" as="sourcePoint" />
            <mxPoint x="3284" y="927.5" as="targetPoint" />
            <Array as="points">
              <mxPoint x="3134" y="930" />
              <mxPoint x="3134" y="927" />
            </Array>
          </mxGeometry>
        </mxCell>
        <mxCell id="WwwLS8CgqeU5e52Q2BZr-57" value="" style="shape=datastore;html=1;labelPosition=center;verticalLabelPosition=bottom;align=center;verticalAlign=top;fillColor=#d5e8d4;strokeColor=#82b366;strokeWidth=1;" vertex="1" parent="1">
          <mxGeometry x="2925" y="129" width="203" height="233" as="geometry" />
        </mxCell>
        <mxCell id="WwwLS8CgqeU5e52Q2BZr-65" value="" style="shape=image;verticalLabelPosition=bottom;labelBackgroundColor=default;verticalAlign=top;aspect=fixed;imageAspect=0;image=data:image/jpeg,/9j/4AAQSkZJRgABAQAAAQABAAD/2wCEAAoHCBUSFRgWFRYYGBgYGBwaGhgYHBgcGBgcGRwZGhgaGhgcIS4lHB4rHxgaJjgmKy8xNTU1GiQ7QDs0Py40NTEBDAwMEA8QHxISHzQrJSsxMTQ0NDQ0NjQ0NjY0NjY0PTQxNDQ9NDQ0PTQ0NDQ1NjQ0NDQ0ND00NDE9NDQ0NDQ0NP/AABEIAOEA4QMBIgACEQEDEQH/xAAbAAABBQEBAAAAAAAAAAAAAAACAAEDBAYHBf/EAEYQAAECAwYEBAMEBgcIAwAAAAEAAgMRIQQSEzFBUQUGYXEiMoGxkaHwBxRCwSNicoKy0WOSorTC0vEkM0NSc3Sj4RUWNf/EABkBAQEAAwEAAAAAAAAAAAAAAAABAgMFBP/EACQRAQEAAgIBBAIDAQAAAAAAAAABAhEDIRIEMUFRQmEyM4Ei/9oADAMBAAIRAxEAPwDsypxMylfO6na0EAkIFAy9UFo09U0Q3TIUTwfFOdUAwfMp35HsUERoAmKKNjiSASgjV0IcMbBVy87oFF8xUtny9f5J2NBAJCjim6ZClEBWjRBB8yKD4pzqiiNAExQoDfkeypudIEnIAk9hUqQPJIrqvC5m4s1jXQmSL3CTiPwtOc+pGnWe08M8pjjuscspjN1o4bw4AioIBHY5KGLmfrRZvk/iZewwXO8UPy9WTp/VNOxatSxoImRMphlMpLDHKZSZQrPke6a0ZDuhim6aUTwjezqs2QIXmH1orLsio4jQBMUKia87oAVxmQ7JsMbBV3PM80Ci5lSWfIp4bQRM1KGL4cqICtGXqooXmCKEbxrVG9oAmBIoJSqSMPO6sYY2CCokreGNgmQNgjqo3RC2g0T4/T5pYV6s80DtbeqUzvDlruleu0z1S8/SX5oGY4uoUZhAV2qhuXK5pYs6SzogbHPRSYI6oMDr8ksfogZzy2g0RNF6p7UTYd6s5TSndpnr9fBAnC7lruma4uoU873SS8zjfERZWTmC4zDRudz0H/rVTLKYzdTLKYzdUuYuMiD+jh1iEVOjAcu7jptn3xpM6mpJmScyTmSd0JiOc4ucSXOJJJzJOqJc3k5Lnd1zuTkud2rQbS+FEvsN1zXGR/IjUHZdH4JxptpZMSa5vnbmQTqDq06FcyjeY91LYLY6A8PYZOGmjhq13Qpw81wv6OHluF/TrrReqfkk4XajXdUeFcRZHhtiMyOYObXChB+q0KuzvUykulLLNx0ZZZuGa8uMjkUZhAVQ3LtZzl/oljTpLNVTY56IxCBruhwOvySxpUllRAznltBkib4s9Nk1y9WcppTuUzmgdwu1HaqFry6h1T3r1MtUsO7Wc5ICwR1QY56J8folgdfkgbHPRJPgdfkkgHBcpGxABI6I743HxUD2kkyCB3NvGYTs8OeqKEZCtO6GNWUq9kDucHCQzQiGRU6VShCRmad1I5wINRkgWM1R4JQYZ2Ksh43CAGvDRI5hA9t6o7JntJJICkhGQrSuqCMG5Mk0ln2zJXNuMcRNojOf+HysGzRl8c/VannXiNyG2G0icSc/2Rn8TIdprDArxeq5N3xjxep5O/GDUoUSkYV5HmilG8x7oEcbzHugUY17PLXFvu0SRP6N5DX/AKpya7016T6LpbBdqdVxtdC5R4kY8G44zfCk07lpncPyI9Oq9vpeT8b/AI9npeT8b/jSOeHCQzKAQiKpobSCCaKYvEswvY9hsZqjMImu6C4dirAeJZhALXBokc0Lxfy0TRGkmYqig0nOndAzG3ansic8OEhmU0YzFK10QQ2kEEiSBxBKkxmoi8bhVsM7FBPjNSUGGdikgFW4eQ7IpKrEzKArRn6J7Pr6fmjg5eqC0aIDj+VQMzHdHAzUz8j2QGqJSmroCAIWQUVoz9P5oYuZVbiVqwYESJq1pI7yk35yUt1NpbqbYDmK2YtoeR5W+BvZuZ9XFxXnKNoUjSuTllcrbXJyy8rbUjUTDVA1OoK8fzFRqSOfEfrRR3gohL1uWbfgWhriZBxuO2k40Po6R+K8i+mL1ljlcbLFwyuOUsdpi+U/WqrtzHdU+A2vGhQnkzLm+L9poLXfMFesciutLubjrS7m4NUn5nummrbBQdlVDB8o+tUFozCCLmVJZ8igGz5+imi5FBHy9VFC8wQAFeTEKlNBeSVGaSA8R26ma0EAkJsAdUBiEUEqIFEddMhRPC8U51knDb1T8kzvDlrv0QFEaGiYoVG15JAJTtffofkjMICtaVQHhjZVzEO6LHPRHgDqgTGzqc1ned4tyz3RS+9ol2m4/wAIXvmIRQaLI8+xZthD9Zxl2AH+IrVzXWFaua6wrHNRsUYRBcty0gKNRo2lFipH8x9PyUaltHmPp7KJVSSSSQbvkC0zhRGascCOgeJe7StUHndYT7P3/pntn5mT/quH8yugGEBWtF0uC7wjo8F3hB4Y2UDnkHNPjnojEIGtarc3FDaCJmpQxTdyomc8toNN04F7PTZA0M3jI1Uj2gCYzQubdqO1ULYhdQ6oBEQ7qxhjZBgjqgxz0QTYY2TKLHPRJAWP0TYV6s80OC5SNeAJHMIBDrtM0j4+kvzTPbeMwnZ4c9UCDLlc0+LOks6JPcHCQzQthkGZ0QP936p8foixgosJyAsO9WeaxXPzZOgj9V/uxbZrwBI5hY/7QBPBcN3N/hP5LR6j+utPP/XWNRBCnaua5iRqNqjYiBRVe0eY+iiUto8x9PZRKqSSSSDSciOlaT/03fxMXRcWdJZrnnIcMm0PlpDPzc1dAEIhdH038HQ9N/AX3fqnxZUlkixgozDJqt7ecsvVymkDcpnNE1waJHNC8XskCLr1MtUhDu12SYLtSic8OEhmUDY/RN936oRCKlxggD7v1SR4wToHvjcKu9pJNCgVuHkOyAIJkK07oY1ZSr2TWjP0T2fX0/NA0ISNad1K5wINRkmj+VQMzHdA1w7H4K0HjcI1RKCSI0kmQWe50s96zXtWPa7rIgsPp4vktPCyCpcUswisfDOTmFvac5H0Mj6LDOeWNjDPHyxscnSCTmkGThIgyI2IoR8UlynKEEaAIxkoivH8yjRxj4io5qsjpJpp0Gz+zuD4orzl4WA/1i7/AA/FbkuEsws/yjZMOyNJzf4z+8Rd/shq9duY7rp8OPjhI6fDj44SFcOx+CstcJCoUipPzPdbWwcUTNKo4NJzp3RQfKPrVBaMwgKKZila6KOG0giYT2fP0U0XIoEXjcKrcOx+CYK8gpXDsfgkrqSAbqrPNSliu39lM1gImRUoGg1Hqhj0lJNEcWmQoE8PxTnWSBoJqpnih7IHtDRMUKja8kyJzQBeO6tyCHCbt7qHFO/sgaIalSwaj1TtYCJnNRxDdMhRBz/nPh+FHvgeGL4ugcJBw9j6lZ9dQ4zw771BcwyvDxMJ0cJy9DUHoVzF7C0lrgQ5pIIOYIoQVzvUcfjlv4rneo4/HLfxTNRtUYRBed50EbzFCniGp7plWRK1wuxGPFZDH4nVOzRVx+AKqrd8h8KutdHcKvEmjZoNT+8R8B1Wziw8so2cWHllGpgAAtaKNAkBoABIBWXChQPaGiYzUYiE6+y6jpgvHdWmCg7JsJu3uoTEIpNAoxqUcCoM07Ghwmc0MQ3cqICjUHqo4RqE8M3jI1RuaAJjNBIQql47oxEdv7KbCbt7oK147pKzhN290kA4A3KAxC2myLHGxTGHerugcNvVKZ3hy136Jw67Q1THxZUl+aBNdeoU5hAV2qmDbtSnMUGks6IBxzsEeANyhwDunxxsUAmIW02RBt6p7UTGHerukDdoa6oERdy13WQ5v4PfnaIY8QHjaPxADzDqBn07LXnxZUkmEO7U1WGeEzx1WGeEzx1XH060nM3AMMmNBHgNXtGbOo3b7dss5DEyBuQuZlx5Y5eNczLDLHLxqK0suvcNiVGrfFWSiE6OAP5H5hS8F4Q+1Puto0Vc4ijR+Z2CXC+XjGVwvlcZ9p+WuCutUSRmIbavd/gB3PyC6eGhgF0UlIDQAZAKGwWRlmYIbBJo+JOpJ1JVg+KgpJdHh4phj+3v4uOYY/swfeodf9UWCBWZomDLtdv9E+MDSWa2tocc7BEIINa1Q4B3CIRgKSyQMX3aDRIC9npskYd6u6QNzOs0DubdqO1UIiXqHVETeoKaphDu12QFgDcoMc7BFjjZNgHdA2OdgnSwDukgDCdt7KVrwBI5hSXhuqzxUoCe0uMxUJ4fh81J/WiKCZCqGPWUqoCe4OEhUqNrCDMjJPBEjVSvIkeyBYrd/dQ4R29kF07FWw4boI2vAEjmEEQXjMVQxBUqWCZCu6AYfh81J/WiJ7g4SGaaNWUqoIIkaoGwzqKa5ZarJcb5eZDdjQqAHxMAoCaAt2EyKaLaPIkeyoWuEXMeJZtPxlMfNY5YzKdsbjMtbZSHwVtqLWkkXa3mynISvZ7rXcPskOzsDGNDQNBnPcnU9VR5eYBePQe5/l816kUTJWOOEnfyvjN712eIL1RVPD8OdE8GgrSqUaoEqrYp3uDhIZqMQyNPZKEJEKcuEs0DYrd/dQmGTWXsgunYqy1wkKoBY4NEjmhieLKqGKJko4NAZ0QDDF0zNEbnhwkM0oxmKbqOGKhAhCdt7KbFbv7oi4bqpdOxQWcVu/ukq107FJAytw8h2SuDYKu9xmaoCtGfons+vp+aKEJitUMakpU7IDj+VQMzHdHBMzWqle0SNNEEiolPeO5VoNGwQKFkFDaM/T+aaISCVJBExWtdUA2fVHGyQxqSlTshhGZqgjZmO4VtwmCEL2iRpoq147lBS4YyTT6fJetB8oThg2CgimRMlJNB7RmOyVnzPZFBqK1rqlGoBKnZUFF8p+tVXbmO6OEZkTVG1ces0JxY+I0PbmJEymJjIbEKWye6ybeuqb8z3XlO5ksw/wCOPg//ACqZnMlkMv0re5DgPUkJufZq/T14PlH1qgtGYULLQ14vMeHNORaQW/EI32hsNjnvcA1tS46BVBWfP0UsXIrxXcy2QjwxR6Nf+TUDOZbLOsYfB/8AlU3PtdX6emFeVOyWyFGBMN7XgZ3SCR3GY9U147lVF1JUrx3KSA8U7+ykawETOZQPgUMjIyMiRMA6EjVcq5l4jxKzWqFBfaMQOfDcxsICC2IMQNDHSmW3iLpmSJHVS3SybdVeSDJqeH4s6yWL4xy3xG1tL3W7DdUtgwREZDGzTEa8Oef1iJdF4fJ/MHEIofZGOYYjJ/po5LnQmtdce1zRWI4OIAmaVnOSm+18et7dSe0NExmo2xCTI6rlvMnBeI2NptQt8WLdIL5F7LgJkCId9zHMmRMSGc5Ldco8VNssrI7gA+rXgeW8wyJGwMgZaTSZd6LNTb3cJu3uosRyyvOHNb7O+HZrO1rrTGLQ0uq1ge4MaSNSST0ABJ2IWnkmLEbedxG140p3mvLYQdL8MJpF1vQH1Tf0mvtsWMBEzmUDzdMhRc45Y5otVmtf3G2uL/FhtiGrmu/AS/8AGx/hkT4heE9ZaHnM20QnRrNGYxkNhc9hYC83Zuc5r3THl/DdGRrWjy62a7008PxZ1RPaGiYzXK+T7TxG2Q4zWR7oMQX7REJe9vgb+jhMnJu5NBWlVQ43ZrfwmIyKLU+M1xlec+IWOcKlkSG57sxOszkagp5db0vj3rbr7YhNCc1LhN291T4ZaGx4MOO2giMa8A6XgHSJ6ZLF2Hi8bi8eMxkWJAssGQ/QkNixS4vDDiVLAbhdISMpDVW1JG7MRwUjWhwmc1y3m2yWnhJZGgWu0OhvdcLYzzEuvkXAEPm0ghrtJi7nVanlT788tj2mOx8N8IYcOG26DfuPvv8ACPEALoH6xUmXels6208Q3aCiTPF5lhmcbj8VtUSz2aJgWeEPHHYAYsSt2TC7yAm9IyNGznUBQ8wcq2mzMMeyW21ufDBc5kWK594ATN2fhJABN1wM039Jr7dBe0NExmvF5igNfZ4pc1pLWOcHECYIqCDmMl5nIfNLuIQ3MiSEWHK8QJB7TO68DIGbSCB0NJyXt8fhgWaMZ/8ADd7FL3islleByHAa4RS5rSQWgEgGQk7de9beFwIsw+Gw6TADXDs5tV4XIT7rY37TfZy1+FOs81MJPGGV/wCnO7ZAi8NjNcxxLHTLZ5PA8zHgaiYr1mNlubJa2xYbHt8r2zkayOoPUGY9F4/O0IGz/sPaQf2ptP8AEEuRiXWdwJMmxHAdi1jiPiT8VMestLe8ds7ztDa20eFobOE1xkAJm9EE5DWQHwW8tHDIDmkOhMIl/wAradqU9FiOexK0tH9C3+OIvfi8atcj/sLh++HZdGiZUlkt2tlsjNNYbJbgyGTIRGNlqWxLhLTvR0vQFdIwm7e659wO2wTaDEtJcIxfQkAQ2GgExmCBICdBId1vcc7K8fymfwkwm7e6SjxzsnWxgLHGxXMPtC//AErEd3QP7wukuY4DInoJTPRcv5lstvtdqhWhthiMbBw7rHPhkuuPxPEQ6QmaUmscvZlj7uq3rtD3ouYckCfFraBq+0/3ia2zuKRzAxvucXEnd+7h0O/n5r167dlXfosHy9ZLfZLZEtTrDEcIpilzWvhXm4j8SnirI0rJL7wntW351hkWC0zl/unfkvL+yw/7ERvGf7NVznaNaIlndAgWaJFMZhDnh0NrYdRMOvOEzKeVOq8rkGHbLI0WeNY3tYXufjX4RDZgEhzQ4n8MpjcU1T5Phn+LxMPjrXP8uNADScpOhQ2AieQvk/ArrmMNisVz/wAqG23Y0AgRmNukE3Q9k5iTvwuaSZaVM5UIh4ZzHbmMEO0cPtD4jfDfYGhr/wBZxcboO5BI1pkk6q3uTTP/AGjwp8TgXKPeyBKWd7Ge1pPwHwXROa6WK1DeBFPTyOXhcF5fixbWbfbQ1jwAIUBrr2GACGl7hQuAcaCk3E7AXOerTGMF8CDZnx8eE9he0i7DvC6Z6kycSB0Uk6tLe5HifZE29Z7QP6cH/wAbFY+1mGRZYf8A3Df4Iio/Z8y12JzoUSxRbkV7SYk2gQ6XSXAmokJ0qrH2im02uVmg2SK5jIjX4wldf4DRo6F5Bnq1PxX8mk5LcPuFmbvBaPyXPeXrUeCWuLBtTXNhRAGiJIlsmF1x4/5mkOIMpkFwmKLY8jR7Q2Gyzx7LEhCFDkIji26+TsruYdIz1yKynONstsC3w3PuxWNe59mh3b0Nzbrmm9Db4i9oeZu3kRsF9pSe9j0ea7aONCDAsM4jWxMSJaLrhChyY9gF50rx8ZMhXLem5NiwrOYcPJkIsZPPwsut9ZgLn5+0a0QwDHsV0ZTLojBPYBzD8JrY8qc0wrexxYHMcwgPY6RIvTuuBGbTI1pkaJLLWNl0xn2O2hodaGHzFsNw3k0vB+Bc34rqBN6g03XMuJ8r2qw2o2uwMERhLjhjzND6vYWmV5hNRdqKUpX3P/sVtjMLIPD40OK5sr8YtbBYT+K8fE6WwarOpqre7uMz9mTLtvtF3yMZEbTbFa1nyaujcwxQbNGz/wB272kvO5R5abYILhevxokjEfuRk1pNbomc6kknWSXMlojXXQYcCI++wAvAm0TzAlmZD5qe2JbvJS5CZebG/ab7OWwEUClaLAcBfa7I50rPEc10rwLXA0nIgy6le9/8naonksbmk6xHhrR1IkCVMbqaMpu7VOerY0Q2w51e69LZraTP7xHwK9TleymBZ2hwIc6byNRPIHrIBVOHcvnEx7U8RIlCGjyNllpWWgkAOua9u2xCGFzWF5aPK3zOOwmrJ3upb1qMLz46doB/oW/xxF0AMkbxXPOOQLRaol/7vFYLgYBdJMheM5yz8RWigcctJYGusUQukASKNJ3q2ixxusqyy7keZz5BbehxAJOdea7Kbg26Wk7ymR6rRcvsc6zQS41uDPOQ8v8AZkvHdwSPa4jX2kBjG0bDYZulOZBOQnqZz6BauG5rQAJAASEsgBkFljO7WOV6kDgnonUmKN0lmxHNVYgqUCtw8h2QBAy9UNo0TWjP0T2fX0/NA0DNTPND2Qx/KoGZjugGSugp1RKA4gqVLAy9UcLIKG0Z+n80BR9EEEVRWfVHGyQV+KRnMgxXsF57Yb3MbnNzWktEhnMgLBfZlb2R8d8R9+1PeC5ziL7oV0XQwaMDr9G0Ex0W9ZmO4WZ4r9nlljPMRjokB5JcTCcALxzIBBuk/qyWNl3uLLNarU2tzAxxiloYGm8XyuSlW9Oku65/9mfDbrrTaWNc2FEeWQAQRehtc5wcJ1lItAJ2cvUsvI8BpGPFtFqDTRkeI50MfuZHsZhbCA0BoAAAFABQADIAaJrd3Tck1CgZHumtGQQ2jMdk9nzKyQMIeIfWincaFNG8p+tVWbmO6BpK2w0HZGqT8z3QFFFSpLPkUUHyj61QWjMICj5eqihCoRWfP0U0XIoCJVKSQV5BRkkrySCircPIdkySCK0Z+iez6+n5pJIDj+VQMzHdJJBcVEpJILcLIKG0Z+n80kkD2fVHGyTpIKzMx3CupJIKTs1Zg+UJJIIrRmOyez5lJJBJG8p+tVWbmO6SSC6qT8z3TpIJ4PlH1qgtGYSSQNZ8/RTRcimSQVQrySSBJJJIP//Z;strokeWidth=1;" vertex="1" parent="1">
          <mxGeometry x="2986" y="231.00000000000003" width="97.09" height="97.09" as="geometry" />
        </mxCell>
        <mxCell id="WwwLS8CgqeU5e52Q2BZr-71" style="edgeStyle=orthogonalEdgeStyle;rounded=0;orthogonalLoop=1;jettySize=auto;html=1;exitX=0;exitY=0.25;exitDx=0;exitDy=0;entryX=0.006;entryY=0.374;entryDx=0;entryDy=0;entryPerimeter=0;strokeWidth=1;" edge="1" parent="1" source="WwwLS8CgqeU5e52Q2BZr-65" target="WwwLS8CgqeU5e52Q2BZr-65">
          <mxGeometry relative="1" as="geometry" />
        </mxCell>
      </root>
    </mxGraphModel>
  </diagram>
</mxfile>
